<svg width="60" height="60" viewBox="0 0 60 60" fill="none" xmlns="http://www.w3.org/2000/svg">
<rect width="60" height="60" fill="black"/>
<rect x="24.25" y="13" width="5.25" height="1.75" fill="#06FC99"/>
<rect x="13.75" y="25.25" width="5.25" height="1.75" transform="rotate(90 13.75 25.25)" fill="#06FC99"/>
<rect x="15.5" y="21.75" width="3.5" height="1.75" transform="rotate(90 15.5 21.75)" fill="#06FC99"/>
<rect x="24.25" y="16.5" width="3.5" height="1.75" transform="rotate(-180 24.25 16.5)" fill="#06FC99"/>
<rect x="20.75" y="18.25" width="3.5" height="1.75" transform="rotate(-180 20.75 18.25)" fill="#06FC99"/>
<rect x="17.25" y="21.75" width="1.75" height="3.5" transform="rotate(-180 17.25 21.75)" fill="#06FC99"/>
<rect x="47" y="25.25" width="5.25" height="1.75" transform="rotate(90 47 25.25)" fill="#06FC99"/>
<rect x="34.75" y="14.75" width="5.25" height="1.75" transform="rotate(-180 34.75 14.75)" fill="#06FC99"/>
<rect x="38.25" y="16.5" width="3.5" height="1.75" transform="rotate(-180 38.25 16.5)" fill="#06FC99"/>
<rect x="43.5" y="25.25" width="3.5" height="1.75" transform="rotate(-90 43.5 25.25)" fill="#06FC99"/>
<rect x="41.75" y="21.75" width="3.5" height="1.75" transform="rotate(-90 41.75 21.75)" fill="#06FC99"/>
<rect x="38.25" y="18.25" width="1.75" height="3.5" transform="rotate(-90 38.25 18.25)" fill="#06FC99"/>
<rect x="34.75" y="48" width="5.25" height="1.75" transform="rotate(-180 34.75 48)" fill="#06FC99"/>
<rect x="45.25" y="35.75" width="5.25" height="1.75" transform="rotate(-90 45.25 35.75)" fill="#06FC99"/>
<rect x="43.5" y="39.25" width="3.5" height="1.75" transform="rotate(-90 43.5 39.25)" fill="#06FC99"/>
<rect x="34.75" y="44.5" width="3.5" height="1.75" fill="#06FC99"/>
<rect x="38.25" y="42.75" width="3.5" height="1.75" fill="#06FC99"/>
<rect x="41.75" y="39.25" width="1.75" height="3.5" fill="#06FC99"/>
<rect x="12" y="35.75" width="5.25" height="1.75" transform="rotate(-90 12 35.75)" fill="#06FC99"/>
<rect x="24.25" y="46.25" width="5.25" height="1.75" fill="#06FC99"/>
<rect x="20.75" y="44.5" width="3.5" height="1.75" fill="#06FC99"/>
<rect x="15.5" y="35.75" width="3.5" height="1.75" transform="rotate(90 15.5 35.75)" fill="#06FC99"/>
<rect x="17.25" y="39.25" width="3.5" height="1.75" transform="rotate(90 17.25 39.25)" fill="#06FC99"/>
<rect x="20.75" y="42.75" width="1.75" height="3.5" transform="rotate(90 20.75 42.75)" fill="#06FC99"/>
<rect x="20.3992" y="30.1501" width="1.75" height="1.75" fill="#06FC99"/>
<rect x="20.3992" y="31.9001" width="1.75" height="1.75" fill="#06FC99"/>
<rect x="22.1492" y="31.9001" width="1.75" height="1.75" fill="#06FC99"/>
<rect x="22.1492" y="33.6501" width="1.75" height="1.75" fill="#06FC99"/>
<rect x="23.8992" y="33.6501" width="1.75" height="1.75" fill="#06FC99"/>
<rect x="23.8992" y="35.4001" width="1.75" height="1.75" fill="#06FC99"/>
<rect x="25.6492" y="35.4001" width="1.75" height="1.75" fill="#06FC99"/>
<rect x="25.6492" y="37.1501" width="1.75" height="1.75" fill="#06FC99"/>
<rect x="27.3992" y="33.6501" width="1.75" height="1.75" fill="#06FC99"/>
<rect x="27.3992" y="35.4001" width="1.75" height="1.75" fill="#06FC99"/>
<rect x="29.1492" y="31.9001" width="1.75" height="1.75" fill="#06FC99"/>
<rect x="29.1492" y="33.6501" width="1.75" height="1.75" fill="#06FC99"/>
<rect x="30.8992" y="30.1501" width="1.75" height="1.75" fill="#06FC99"/>
<rect x="30.8992" y="31.9001" width="1.75" height="1.75" fill="#06FC99"/>
<rect x="32.6492" y="28.4001" width="1.75" height="1.75" fill="#06FC99"/>
<rect x="32.6492" y="30.1501" width="1.75" height="1.75" fill="#06FC99"/>
<rect x="34.3992" y="26.6501" width="1.75" height="1.75" fill="#06FC99"/>
<rect x="34.3992" y="28.4001" width="1.75" height="1.75" fill="#06FC99"/>
<rect x="36.1492" y="24.9001" width="1.75" height="1.75" fill="#06FC99"/>
<rect x="36.1492" y="26.6501" width="1.75" height="1.75" fill="#06FC99"/>
<rect x="37.8992" y="23.1501" width="1.75" height="1.75" fill="#06FC99"/>
<rect x="37.8992" y="24.9001" width="1.75" height="1.75" fill="#06FC99"/>
</svg>
