<svg width="14" height="15" viewBox="0 0 14 15" fill="none" xmlns="http://www.w3.org/2000/svg">
<path d="M6.34955 9.00425V7.49731C6.86994 7.47786 7.28111 7.37416 7.58307 7.1862C7.88503 6.99175 8.036 6.69036 8.036 6.28203V6.14592C8.036 5.82185 7.93964 5.58203 7.7469 5.42648C7.56058 5.27092 7.31002 5.19314 6.99522 5.19314C6.66114 5.19314 6.39131 5.29036 6.18572 5.48481C5.98013 5.67277 5.83879 5.91259 5.7617 6.20425L4.84619 5.83481C4.90401 5.63388 4.99074 5.43944 5.10639 5.25148C5.22845 5.05703 5.37622 4.88851 5.54968 4.74592C5.72957 4.60333 5.94159 4.4899 6.18572 4.40564C6.42985 4.3149 6.71254 4.26953 7.03377 4.26953C7.355 4.26953 7.6441 4.3149 7.90109 4.40564C8.1645 4.49638 8.38936 4.62601 8.57567 4.79453C8.76198 4.95657 8.90332 5.15749 8.99969 5.39731C9.10249 5.63064 9.15388 5.8899 9.15388 6.17509C9.15388 6.46675 9.10249 6.72601 8.99969 6.95286C8.8969 7.17972 8.76198 7.37416 8.59494 7.5362C8.4279 7.69824 8.23517 7.83111 8.01673 7.93481C7.80472 8.03851 7.58628 8.10981 7.36142 8.1487V9.00425H6.34955ZM6.87958 11.2695C6.58405 11.2695 6.37525 11.208 6.25318 11.0848C6.13111 10.9617 6.07008 10.8061 6.07008 10.6181V10.3848C6.07008 10.1968 6.13111 10.0413 6.25318 9.91814C6.37525 9.79499 6.58405 9.73342 6.87958 9.73342C7.17511 9.73342 7.38391 9.79499 7.50598 9.91814C7.62804 10.0413 7.68908 10.1968 7.68908 10.3848V10.6181C7.68908 10.8061 7.62804 10.9617 7.50598 11.0848C7.38391 11.208 7.17511 11.2695 6.87958 11.2695Z" fill="#06FC99"/>
<circle cx="7" cy="7.5" r="6.46154" stroke="#06FC99" stroke-width="1.07692"/>
</svg>
