<svg width="90" height="100" viewBox="0 0 90 100" fill="none" xmlns="http://www.w3.org/2000/svg">
<rect x="80" y="50" width="70" height="4.99999" transform="rotate(-180 80 50)" fill="#06FC99"/>
<rect x="5" y="90" width="5" height="35" transform="rotate(-180 5 90)" fill="#06FC99"/>
<rect x="90" y="90" width="5" height="35" transform="rotate(-180 90 90)" fill="#06FC99"/>
<rect x="10" y="55" width="5" height="5" transform="rotate(-180 10 55)" fill="#06FC99"/>
<rect x="10" y="95" width="5" height="5" transform="rotate(-180 10 95)" fill="#06FC99"/>
<path d="M85 55L80 55L80 50L85 50L85 55Z" fill="#06FC99"/>
<rect x="85" y="95" width="5" height="5" transform="rotate(-180 85 95)" fill="#06FC99"/>
<rect x="58" y="5" width="25" height="5" transform="rotate(-180 58 5)" fill="#06FC99"/>
<path d="M63 10L58 10L58 5L63 5L63 10Z" fill="#06FC99"/>
<path d="M33 10L28 10L28 5L33 5L33 10Z" fill="#06FC99"/>
<rect x="28" y="35" width="5" height="25" transform="rotate(-180 28 35)" fill="#06FC99"/>
<rect x="68" y="45" width="5" height="35" transform="rotate(-180 68 45)" fill="#06FC99"/>
<rect x="50" y="73" width="5" height="10" transform="rotate(-180 50 73)" fill="#06FC99"/>
<rect x="45" y="73" width="5" height="10" transform="rotate(-180 45 73)" fill="#06FC99"/>
<rect x="47" y="83" width="4" height="10" transform="rotate(-180 47 83)" fill="#06FC99"/>
<rect x="80" y="100" width="70" height="4.99999" transform="rotate(-180 80 100)" fill="#06FC99"/>
</svg>
