<svg width="96" height="96" viewBox="0 0 96 96" fill="none" xmlns="http://www.w3.org/2000/svg">
<rect width="96" height="96" rx="48" fill="#06FC99"/>
<path fill-rule="evenodd" clip-rule="evenodd" d="M66.235 75.0684L21.115 75.0684L21.115 20.7324L21.1196 20.7324L21.1196 29.9688L29.9531 29.9688L29.9531 20.7324L74.875 20.7324L74.875 65.6604L66.235 65.6604L66.235 75.0684ZM66.2344 29.7559L66.2344 65.6599L56.8264 65.6599L56.8264 57.0684L48.0571 57.0684L48.0571 47.5938L39.3563 47.5938L39.3563 65.6159L29.9531 65.6159L29.9531 29.9805L39.3563 29.9805L39.3563 38.0936L48.1719 38.0936L48.1719 47.5682L56.8264 47.5682L56.8264 29.7559L66.2344 29.7559Z" fill="black"/>
</svg>
