<svg width="30" height="30" viewBox="0 0 30 30" fill="none" xmlns="http://www.w3.org/2000/svg">
<g clip-path="url(#clip0_513_2809)">
<path fill-rule="evenodd" clip-rule="evenodd" d="M15 0C6.71573 0 0 6.71573 0 15C0 23.2843 6.71573 30 15 30C23.2843 30 30 23.2843 30 15C30 6.71573 23.2843 0 15 0Z" fill="url(#paint0_linear_513_2809)"/>
<path fill-rule="evenodd" clip-rule="evenodd" d="M6.16211 15C6.16211 10.1191 10.1189 6.16235 14.9998 6.16235C19.8807 6.16235 23.8375 10.1191 23.8375 15C23.8375 19.8809 19.8807 23.8377 14.9998 23.8377C10.1189 23.8377 6.16211 19.8809 6.16211 15ZM12.7413 17.8477C12.4159 17.8477 12.1521 17.5839 12.1521 17.2585V12.7415C12.1521 12.4161 12.4159 12.1523 12.7413 12.1523H17.2583C17.5837 12.1523 17.8475 12.4161 17.8475 12.7415V17.2585C17.8475 17.5839 17.5837 17.8477 17.2583 17.8477H12.7413Z" fill="#EFEFEF"/>
</g>
<defs>
<linearGradient id="paint0_linear_513_2809" x1="15" y1="30" x2="15" y2="0" gradientUnits="userSpaceOnUse">
<stop stop-color="#2E66F8"/>
<stop offset="1" stop-color="#124ADB"/>
</linearGradient>
<clipPath id="clip0_513_2809">
<rect width="30" height="30" fill="white"/>
</clipPath>
</defs>
</svg>
