<svg width="30" height="30" viewBox="0 0 30 30" fill="none" xmlns="http://www.w3.org/2000/svg">
<path d="M28.4231 1.17944L16.7891 9.82016L18.9405 4.72226L28.4231 1.17944Z" fill="#E2761B" stroke="#E2761B" stroke-width="0.116924" stroke-linecap="round" stroke-linejoin="round"/>
<path d="M1.56543 1.17944L13.1059 9.90201L11.0597 4.72226L1.56543 1.17944Z" fill="#E4761B" stroke="#E4761B" stroke-width="0.116924" stroke-linecap="round" stroke-linejoin="round"/>
<path d="M24.2372 21.2087L21.1387 25.9558L27.7684 27.7798L29.6742 21.3139L24.2372 21.2087Z" fill="#E4761B" stroke="#E4761B" stroke-width="0.116924" stroke-linecap="round" stroke-linejoin="round"/>
<path d="M0.337891 21.3139L2.23206 27.7798L8.86168 25.9558L5.76318 21.2087L0.337891 21.3139Z" fill="#E4761B" stroke="#E4761B" stroke-width="0.116924" stroke-linecap="round" stroke-linejoin="round"/>
<path d="M8.48706 13.1876L6.63965 15.9821L13.2225 16.2744L12.9886 9.20044L8.48706 13.1876Z" fill="#E4761B" stroke="#E4761B" stroke-width="0.116924" stroke-linecap="round" stroke-linejoin="round"/>
<path d="M21.5011 13.1876L16.9411 9.11865L16.7891 16.2744L23.3602 15.9821L21.5011 13.1876Z" fill="#E4761B" stroke="#E4761B" stroke-width="0.116924" stroke-linecap="round" stroke-linejoin="round"/>
<path d="M8.86133 25.9557L12.8134 24.0265L9.39918 21.3606L8.86133 25.9557Z" fill="#E4761B" stroke="#E4761B" stroke-width="0.116924" stroke-linecap="round" stroke-linejoin="round"/>
<path d="M17.1748 24.0265L21.1385 25.9557L20.589 21.3606L17.1748 24.0265Z" fill="#E4761B" stroke="#E4761B" stroke-width="0.116924" stroke-linecap="round" stroke-linejoin="round"/>
<path d="M21.1385 25.9558L17.1748 24.0266L17.4905 26.6106L17.4554 27.698L21.1385 25.9558Z" fill="#D7C1B3" stroke="#D7C1B3" stroke-width="0.116924" stroke-linecap="round" stroke-linejoin="round"/>
<path d="M8.86133 25.9558L12.5445 27.698L12.5211 26.6106L12.8134 24.0266L8.86133 25.9558Z" fill="#D7C1B3" stroke="#D7C1B3" stroke-width="0.116924" stroke-linecap="round" stroke-linejoin="round"/>
<path d="M12.6029 19.6536L9.30566 18.6831L11.6324 17.6191L12.6029 19.6536Z" fill="#233447" stroke="#233447" stroke-width="0.116924" stroke-linecap="round" stroke-linejoin="round"/>
<path d="M17.3848 19.6536L18.3553 17.6191L20.6938 18.6831L17.3848 19.6536Z" fill="#233447" stroke="#233447" stroke-width="0.116924" stroke-linecap="round" stroke-linejoin="round"/>
<path d="M8.8612 25.9558L9.42243 21.2087L5.7627 21.3139L8.8612 25.9558Z" fill="#CD6116" stroke="#CD6116" stroke-width="0.116924" stroke-linecap="round" stroke-linejoin="round"/>
<path d="M20.5771 21.2087L21.1383 25.9558L24.2368 21.3139L20.5771 21.2087Z" fill="#CD6116" stroke="#CD6116" stroke-width="0.116924" stroke-linecap="round" stroke-linejoin="round"/>
<path d="M23.3602 15.9822L16.7891 16.2746L17.3971 19.6537L18.3676 17.6192L20.706 18.6832L23.3602 15.9822Z" fill="#CD6116" stroke="#CD6116" stroke-width="0.116924" stroke-linecap="round" stroke-linejoin="round"/>
<path d="M9.30455 18.6832L11.6431 17.6192L12.6018 19.6537L13.2215 16.2746L6.63867 15.9822L9.30455 18.6832Z" fill="#CD6116" stroke="#CD6116" stroke-width="0.116924" stroke-linecap="round" stroke-linejoin="round"/>
<path d="M6.63965 15.9822L9.39907 21.3608L9.30553 18.6832L6.63965 15.9822Z" fill="#E4751F" stroke="#E4751F" stroke-width="0.116924" stroke-linecap="round" stroke-linejoin="round"/>
<path d="M20.7058 18.6832L20.5889 21.3608L23.36 15.9822L20.7058 18.6832Z" fill="#E4751F" stroke="#E4751F" stroke-width="0.116924" stroke-linecap="round" stroke-linejoin="round"/>
<path d="M13.2222 16.2744L12.6025 19.6535L13.3742 23.6406L13.5496 18.3907L13.2222 16.2744Z" fill="#E4751F" stroke="#E4751F" stroke-width="0.116924" stroke-linecap="round" stroke-linejoin="round"/>
<path d="M16.7893 16.2744L16.4736 18.379L16.6139 23.6406L17.3973 19.6535L16.7893 16.2744Z" fill="#E4751F" stroke="#E4751F" stroke-width="0.116924" stroke-linecap="round" stroke-linejoin="round"/>
<path d="M17.3967 19.6536L16.6133 23.6407L17.1746 24.0266L20.5888 21.3607L20.7057 18.6831L17.3967 19.6536Z" fill="#F6851B" stroke="#F6851B" stroke-width="0.116924" stroke-linecap="round" stroke-linejoin="round"/>
<path d="M9.30566 18.6831L9.3992 21.3607L12.8134 24.0266L13.3746 23.6407L12.6029 19.6536L9.30566 18.6831Z" fill="#F6851B" stroke="#F6851B" stroke-width="0.116924" stroke-linecap="round" stroke-linejoin="round"/>
<path d="M17.4553 27.698L17.4904 26.6106L17.1981 26.3534H12.79L12.5211 26.6106L12.5445 27.698L8.86133 25.9558L10.1475 27.0081L12.7549 28.8205H17.2331L19.8522 27.0081L21.1384 25.9558L17.4553 27.698Z" fill="#C0AD9E" stroke="#C0AD9E" stroke-width="0.116924" stroke-linecap="round" stroke-linejoin="round"/>
<path d="M17.1751 24.0265L16.6139 23.6406H13.3751L12.8138 24.0265L12.5215 26.6105L12.7904 26.3533H17.1985L17.4908 26.6105L17.1751 24.0265Z" fill="#161616" stroke="#161616" stroke-width="0.116924" stroke-linecap="round" stroke-linejoin="round"/>
<path d="M28.914 10.3814L29.9079 5.61088L28.4229 1.17944L17.1748 9.52785L21.501 13.1876L27.6162 14.9765L28.9725 13.398L28.3879 12.9771L29.3233 12.1236L28.5983 11.5623L29.5337 10.8491L28.914 10.3814Z" fill="#763D16" stroke="#763D16" stroke-width="0.116924" stroke-linecap="round" stroke-linejoin="round"/>
<path d="M0.0917969 5.61088L1.08565 10.3814L0.454263 10.8491L1.38965 11.5623L0.676419 12.1236L1.61181 12.9771L1.02719 13.398L2.37182 14.9765L8.48697 13.1876L12.8132 9.52785L1.56504 1.17944L0.0917969 5.61088Z" fill="#763D16" stroke="#763D16" stroke-width="0.116924" stroke-linecap="round" stroke-linejoin="round"/>
<path d="M27.6161 14.9766L21.5009 13.1877L23.36 15.9821L20.5889 21.3607L24.2369 21.3139H29.6739L27.6161 14.9766Z" fill="#F6851B" stroke="#F6851B" stroke-width="0.116924" stroke-linecap="round" stroke-linejoin="round"/>
<path d="M8.48752 13.1877L2.37237 14.9766L0.337891 21.3139H5.76318L9.39953 21.3607L6.64012 15.9821L8.48752 13.1877Z" fill="#F6851B" stroke="#F6851B" stroke-width="0.116924" stroke-linecap="round" stroke-linejoin="round"/>
<path d="M16.7889 16.2746L17.1748 9.52801L18.952 4.72241H11.0596L12.8135 9.52801L13.2227 16.2746L13.363 18.4026L13.3747 23.6408H16.6135L16.6369 18.4026L16.7889 16.2746Z" fill="#F6851B" stroke="#F6851B" stroke-width="0.116924" stroke-linecap="round" stroke-linejoin="round"/>
</svg>
