<svg width="30" height="30" viewBox="0 0 30 30" fill="none" xmlns="http://www.w3.org/2000/svg">
<path d="M15 30C23.2843 30 30 23.2843 30 15C30 6.71573 23.2843 0 15 0C6.71573 0 0 6.71573 0 15C0 23.2843 6.71573 30 15 30Z" fill="#D08E39"/>
<path fill-rule="evenodd" clip-rule="evenodd" d="M24.1373 13.9856C24.3532 14.1619 24.4985 14.4098 24.5469 14.6843C24.5586 14.7662 24.5576 14.8495 24.5439 14.9312C24.5402 14.9888 24.5331 15.0461 24.5228 15.1028C24.5062 15.2148 24.4821 15.3254 24.4505 15.4341C24.3828 15.6571 24.2812 15.8684 24.1494 16.0605C24.1244 16.0967 24.0927 16.1381 24.0708 16.1666C24.0636 16.176 24.0575 16.184 24.053 16.19V16.205C24.0534 16.2076 24.0538 16.2106 24.0542 16.2141C24.0576 16.2384 24.0639 16.2836 24.0771 16.3496C24.1134 16.5684 24.1245 16.7907 24.1102 17.0121C24.0814 17.4428 23.9796 17.8654 23.8091 18.2619C23.6414 18.6748 23.377 19.0415 23.0381 19.3309L22.999 19.3671L22.9448 19.3851C22.5242 19.543 22.0924 19.6688 21.6529 19.7616C21.2027 19.8644 20.7412 19.909 20.2796 19.8941H20.2405H20.2013C19.2436 19.5858 18.255 19.3839 17.2531 19.2918C16.9807 19.2716 16.71 19.2324 16.443 19.1743C16.1813 19.1078 15.9238 19.0254 15.6721 18.9274C15.2701 18.7811 14.8586 18.6623 14.4404 18.572C14.2438 18.846 14.1528 19.1819 14.1844 19.5176C14.2475 19.9974 14.3997 20.4611 14.6331 20.8849C14.9266 21.3456 15.1679 21.8375 15.3529 22.3514C15.5306 22.9023 15.576 23.4873 15.4854 24.0589L15.4041 24.5799L14.9644 24.2788C14.9115 24.2335 14.8123 24.1734 14.7178 24.1162C14.6993 24.105 14.681 24.0939 14.6632 24.083L14.3621 23.9174C14.4691 24.3116 14.5396 24.7149 14.5729 25.122C14.593 25.4743 14.586 25.8277 14.5518 26.179C14.5247 26.5285 14.4476 26.8723 14.3229 27.1999C13.0745 25.3029 12.0556 24.7595 11.1631 24.2835C10.5637 23.9638 10.0212 23.6745 9.50461 23.026C8.73969 21.9389 8.54697 20.6891 9.61303 18.3251C9.90818 17.5946 10.0903 16.7934 10.2392 16.1382C10.3654 15.5834 10.4677 15.1332 10.5947 14.9191V14.9372C10.5082 15.4354 10.5082 15.9448 10.5947 16.4429C10.6328 16.6774 10.72 16.9011 10.8507 17.0994C10.9883 17.2793 11.1727 17.4179 11.3838 17.5C11.8386 17.6751 12.3184 17.7768 12.8052 17.8011C13.0521 17.8403 13.3021 17.8403 13.558 17.8403C13.6907 17.8381 13.8234 17.8432 13.9556 17.8553C14.0911 17.8674 14.2236 17.8854 14.3561 17.9035C14.8816 17.9886 15.3993 18.1165 15.904 18.286C16.3594 18.4605 16.8409 18.5572 17.3284 18.572C18.3641 18.6547 19.3867 18.8568 20.376 19.1743C20.7666 19.1868 21.1574 19.1565 21.5414 19.084C21.68 19.0599 21.8185 19.0268 21.957 18.9937C22.6376 18.7949 23.4025 17.6385 22.5171 17.7349C22.2713 17.7464 22.0266 17.7766 21.7854 17.8252C21.6472 17.8579 21.5104 17.9097 21.3654 17.9646C21.2165 18.0209 21.0589 18.0806 20.8819 18.1264C20.5477 18.2023 20.1998 18.1929 19.8701 18.0993C19.5818 17.9823 19.2769 17.9111 18.9666 17.8884C19.1118 17.8063 19.2732 17.757 19.4394 17.7439C19.5612 17.7317 19.6692 17.7359 19.7728 17.74C19.823 17.742 19.8721 17.7439 19.9213 17.7439C20.2022 17.7825 20.4878 17.7703 20.7645 17.7078C20.9066 17.6676 21.0505 17.5904 21.2051 17.5074C21.329 17.441 21.4597 17.3709 21.6017 17.3133C21.9159 17.1819 22.2519 17.1104 22.5924 17.1025H22.5864C22.7096 17.0918 22.8336 17.0918 22.9568 17.1025C23.0709 16.9756 23.1567 16.826 23.2086 16.6635C23.2606 16.501 23.2774 16.3293 23.258 16.1599C23.1717 16.0292 23.0413 15.9341 22.8906 15.8918C22.8301 15.8785 22.7531 15.8635 22.665 15.8465C22.218 15.7598 21.4864 15.618 21.1921 15.3438C20.9903 15.148 20.8819 14.5608 21.5926 14.3982C21.9695 14.3328 22.3537 14.3206 22.734 14.362L22.7485 14.3634C22.919 14.3796 23.3422 14.4197 23.4417 14.3349C23.3935 14.3028 23.3506 14.2707 23.3078 14.2385C23.2864 14.2225 23.265 14.2064 23.2429 14.1904L22.3094 13.4797C22.245 13.4344 22.1825 13.3886 22.1212 13.3437C22.0275 13.2751 21.9366 13.2084 21.8456 13.1484C21.8148 13.1263 21.7826 13.1062 21.7492 13.0882C21.7164 13.0703 21.6821 13.0552 21.6468 13.043C21.5439 13.0036 21.4434 12.9584 21.3457 12.9075C20.9815 12.7199 20.65 12.4748 20.3639 12.1817C19.4998 11.299 18.7738 10.2908 18.2108 9.19133C17.9809 8.74485 17.5967 8.39705 17.1296 8.21261C17.3722 8.19802 17.6151 8.23324 17.8435 8.31611C18.0719 8.39897 18.2809 8.52773 18.4577 8.69444C18.518 8.74446 18.5949 8.88196 18.6934 9.05811C18.9685 9.55015 19.4122 10.3438 20.1351 10.3748C20.2597 10.3648 20.3824 10.3374 20.4995 10.2935C20.1406 9.95378 19.8976 9.54465 19.6702 9.16165C19.3252 8.58054 19.0158 8.0596 18.3914 7.93254C18.2348 7.87533 18.0963 7.81811 17.9337 7.7368L17.5121 7.52901L16.6689 7.11644C16.1114 6.84981 15.5382 6.6175 14.9523 6.42079C14.3722 6.23005 13.7737 6.10085 13.1665 6.03532C13.0227 6.01632 12.8779 6.00525 12.7329 6.00219C12.6159 6.00184 12.5005 6.02865 12.3956 6.08049C12.3346 6.10664 12.2659 6.1433 12.1952 6.181C12.1193 6.22146 12.0412 6.26313 11.968 6.29431C11.8264 6.35453 11.6879 6.41778 11.5494 6.48704C11.0006 6.75294 10.4825 7.07811 10.0045 7.45674C9.64547 7.71011 9.33013 8.02034 9.07095 8.37523C9.52282 8.34465 9.97628 8.40401 10.405 8.54989C9.8622 8.53988 9.32128 8.61715 8.80295 8.77876C8.54874 8.85213 8.30015 8.94371 8.05911 9.05281C7.81817 9.15614 7.58559 9.27796 7.36346 9.41719C7.14456 9.54313 6.94223 9.69589 6.76117 9.87193C6.68805 9.94599 6.63068 10.0341 6.59252 10.1309C6.54139 10.2452 6.49627 10.3685 6.45114 10.4919L6.45099 10.4923C6.27595 10.998 6.13608 11.5152 6.0324 12.0402C5.81617 13.0886 5.73521 14.1604 5.79148 15.2293C5.83635 16.0914 6.06099 16.9346 6.45099 17.7048C6.8214 17.2169 7.18277 16.72 7.5321 16.2201C7.98259 15.5722 8.39973 14.9018 8.78187 14.2114C8.98031 13.8555 9.15651 13.4831 9.33459 13.1067C9.49703 12.7634 9.66103 12.4168 9.8449 12.0763C10.0295 11.7093 10.2483 11.3604 10.4984 11.0343C10.6253 10.8667 10.7731 10.716 10.9381 10.5856C11.1016 10.4495 11.3039 10.3683 11.5163 10.3538C10.8417 10.9591 10.3177 12.5853 9.79371 14.4072C9.37211 15.8858 7.93866 19.2557 7.03522 19.34C6.68589 19.358 6.5564 19.1924 6.31849 18.8491L6.11972 18.5781C5.77288 18.0948 5.50833 17.5576 5.33675 16.988C5.17432 16.4305 5.07334 15.8569 5.0356 15.2775C5.0079 14.7081 5.02098 14.1375 5.07475 13.57C5.14159 13.0074 5.24215 12.4492 5.3759 11.8986C5.50136 11.3458 5.66538 10.8024 5.86677 10.2724C5.92098 10.1369 5.97517 10.0044 6.04142 9.86891C6.07779 9.79402 6.11905 9.72158 6.1649 9.65209C6.21746 9.581 6.27481 9.5136 6.33656 9.45032C6.55529 9.24239 6.80275 9.06694 7.07136 8.92934C7.46679 8.72256 7.88811 8.56962 8.32412 8.4746C8.46057 8.16735 8.64791 7.88533 8.87823 7.64043C9.10869 7.4005 9.35848 7.17992 9.62507 6.98092C10.1363 6.57725 10.6896 6.22993 11.2753 5.94497C11.3682 5.89855 11.4813 5.84808 11.5812 5.80351C11.6303 5.78159 11.6763 5.76109 11.715 5.74321C11.767 5.71923 11.8225 5.69053 11.8826 5.65946C11.9583 5.62031 12.0413 5.57739 12.1336 5.53542C12.3144 5.44925 12.5116 5.40303 12.7118 5.3999C12.8692 5.3999 12.9851 5.41199 13.1041 5.4244C13.1422 5.42838 13.1806 5.43238 13.2208 5.43604C13.8678 5.50683 14.5057 5.64511 15.124 5.84861C15.7338 6.05321 16.3302 6.2956 16.9098 6.57437L17.7681 6.98995L18.1927 7.20076C18.2964 7.2568 18.4287 7.30763 18.5728 7.36294C18.5835 7.36708 18.5944 7.37123 18.6053 7.37542C18.7618 7.43565 18.9034 7.49588 19.063 7.57719C19.1477 7.62059 19.2292 7.6699 19.3069 7.72475C19.381 7.78469 19.4514 7.84906 19.5177 7.91749C19.7497 8.16722 19.9518 8.44312 20.12 8.73961C20.1417 8.7773 20.1633 8.81487 20.1847 8.85226C20.4785 9.36475 20.7534 9.84422 21.1801 10.1249L21.4812 10.3236C21.4766 10.3402 21.4705 10.3563 21.4631 10.3718L21.3999 10.4863L21.0987 10.6398C21.069 10.6531 21.0422 10.6722 21.02 10.696C20.9977 10.7198 20.9805 10.7478 20.9692 10.7784C20.9581 10.8072 20.9519 10.8378 20.9512 10.8687V11.0615C20.9527 11.1632 20.9395 11.2646 20.912 11.3626C20.8995 11.4014 20.8844 11.436 20.871 11.4667C20.8522 11.5099 20.8367 11.5452 20.8367 11.5734C20.8272 11.6048 20.8272 11.6384 20.8367 11.6698C21.076 11.9128 21.3525 12.1161 21.6559 12.2721L21.8968 12.3835C21.9535 12.4039 22.0089 12.428 22.0624 12.4558L22.216 12.5491C22.3507 12.6346 22.4611 12.7186 22.5709 12.8022C22.6158 12.8363 22.6606 12.8704 22.7069 12.9045L23.6434 13.6182L23.8663 13.7838C23.9607 13.8454 24.0512 13.9128 24.1373 13.9856ZM16.738 11.206C16.7681 11.5794 16.3224 11.8715 15.7774 11.9318C15.0907 12.001 14.7233 11.6035 14.8197 11.1428C15.0004 10.3718 14.6029 10.6338 14.3379 10.935C14.3335 10.9425 14.3265 10.9482 14.3183 10.951C14.31 10.9538 14.301 10.9535 14.293 10.9502C14.2849 10.9469 14.2783 10.9408 14.2744 10.933C14.2704 10.9253 14.2695 10.9163 14.2716 10.9079C14.383 10.1128 14.8498 10.0797 15.0576 10.0797C15.6869 10.123 16.3104 10.229 16.9187 10.3959C16.9355 10.3996 16.9509 10.408 16.9631 10.4201C16.9753 10.4322 16.9837 10.4475 16.9875 10.4642C16.9913 10.481 16.9903 10.4985 16.9845 10.5146C16.9787 10.5308 16.9684 10.545 16.9548 10.5555C16.8641 10.6349 16.7962 10.737 16.7581 10.8513C16.72 10.9657 16.713 11.0881 16.738 11.206Z" fill="#002522"/>
</svg>
