<svg width="30" height="19" viewBox="0 0 30 19" fill="none" xmlns="http://www.w3.org/2000/svg">
<path d="M6.14398 3.62555C11.0351 -1.16327 18.9652 -1.16327 23.8563 3.62555L24.445 4.20189C24.6895 4.44133 24.6895 4.82954 24.445 5.06898L22.4313 7.04053C22.309 7.16025 22.1108 7.16025 21.9885 7.04053L21.1784 6.24742C17.7663 2.90662 12.234 2.90662 8.82186 6.24742L7.95436 7.09678C7.83208 7.2165 7.63383 7.2165 7.51155 7.09678L5.49788 5.12523C5.25332 4.88579 5.25332 4.49758 5.49788 4.25814L6.14398 3.62555ZM28.0208 7.70292L29.8129 9.45761C30.0575 9.69705 30.0575 10.0853 29.8129 10.3247L21.7319 18.2368C21.4874 18.4763 21.0909 18.4763 20.8463 18.2368C20.8463 18.2368 20.8463 18.2368 20.8463 18.2368L15.1109 12.6214C15.0497 12.5615 14.9506 12.5615 14.8895 12.6214C14.8895 12.6214 14.8895 12.6214 14.8895 12.6214L9.15419 18.2368C8.90963 18.4763 8.51313 18.4763 8.26857 18.2368C8.26857 18.2368 8.26857 18.2368 8.26857 18.2368L0.187323 10.3246C-0.0572328 10.0852 -0.0572328 9.69695 0.187323 9.45751L1.9795 7.70282C2.22405 7.46338 2.62056 7.46338 2.86511 7.70282L8.60061 13.3184C8.66175 13.3782 8.76087 13.3782 8.82201 13.3184C8.82201 13.3184 8.82202 13.3184 8.82202 13.3184L14.5572 7.70282C14.8018 7.46338 15.1983 7.46337 15.4428 7.7028C15.4428 7.70281 15.4429 7.70281 15.4429 7.70281L21.1783 13.3184C21.2395 13.3782 21.3386 13.3782 21.3997 13.3184L27.1351 7.70292C27.3797 7.46348 27.7762 7.46348 28.0208 7.70292Z" fill="#3B99FC"/>
</svg>
