<svg width="10" height="74" viewBox="0 0 10 74" fill="none" xmlns="http://www.w3.org/2000/svg">
<path d="M0.937257 8.06274C0.591355 8.40865 0.418403 8.5816 0.29472 8.78343C0.185062 8.96237 0.104254 9.15746 0.0552602 9.36154C0 9.59171 0 9.8363 0 10.3255V63.6745C0 64.1637 0 64.4083 0.0552602 64.6385C0.104254 64.8425 0.185062 65.0376 0.29472 65.2166C0.418403 65.4184 0.591355 65.5914 0.937258 65.9373L7.26863 72.2686C8.12538 73.1254 8.55376 73.5538 8.92154 73.5827C9.24066 73.6078 9.55251 73.4786 9.76041 73.2352C10 72.9547 10 72.3489 10 71.1373V2.86274C10 1.65111 10 1.04529 9.76041 0.764765C9.55251 0.521356 9.24066 0.392181 8.92154 0.417296C8.55376 0.446241 8.12538 0.874618 7.26863 1.73137L0.937257 8.06274Z" fill="#06FC99"/>
</svg>
