<svg width="10" height="28" viewBox="0 0 10 28" fill="none" xmlns="http://www.w3.org/2000/svg">
<path d="M0.937257 8.56274C0.591355 8.90865 0.418403 9.0816 0.29472 9.28343C0.185062 9.46237 0.104254 9.65746 0.0552602 9.86154C0 10.0917 0 10.3363 0 10.8255V17.1745C0 17.6637 0 17.9083 0.0552602 18.1385C0.104254 18.3425 0.185062 18.5376 0.29472 18.7166C0.418403 18.9184 0.591355 19.0914 0.937258 19.4373L7.26863 25.7686C8.12538 26.6254 8.55376 27.0538 8.92154 27.0827C9.24066 27.1078 9.55251 26.9786 9.76041 26.7352C10 26.4547 10 25.8489 10 24.6373V3.36274C10 2.15111 10 1.54529 9.76041 1.26477C9.55251 1.02136 9.24066 0.892181 8.92154 0.917296C8.55376 0.946241 8.12538 1.37462 7.26863 2.23137L0.937257 8.56274Z" fill="#06FC99"/>
</svg>
