<svg width="10" height="50" viewBox="0 0 10 50" fill="none" xmlns="http://www.w3.org/2000/svg">
<path d="M0.937257 8.06274C0.591355 8.40865 0.418403 8.5816 0.29472 8.78343C0.185062 8.96237 0.104254 9.15746 0.0552602 9.36154C0 9.59171 0 9.8363 0 10.3255V39.6745C0 40.1637 0 40.4083 0.0552602 40.6385C0.104254 40.8425 0.185062 41.0376 0.29472 41.2166C0.418403 41.4184 0.591355 41.5914 0.937258 41.9373L7.26863 48.2686C8.12538 49.1254 8.55376 49.5538 8.92154 49.5827C9.24066 49.6078 9.55251 49.4786 9.76041 49.2352C10 48.9547 10 48.3489 10 47.1373V2.86274C10 1.65111 10 1.04529 9.76041 0.764765C9.55251 0.521356 9.24066 0.392181 8.92154 0.417296C8.55376 0.446241 8.12538 0.874618 7.26863 1.73137L0.937257 8.06274Z" fill="#06FC99"/>
</svg>
