<svg width="172" height="96" viewBox="0 0 172 96" fill="none" xmlns="http://www.w3.org/2000/svg">
<g clip-path="url(#clip0_2585_13924)">
<path d="M125 96C150.957 96 172 74.5097 172 48C172 21.4903 150.957 0 125 0C99.0426 0 78 21.4903 78 48C78 74.5097 99.0426 96 125 96Z" fill="#F9FAFB"/>
<path d="M104.473 48.6215L125.23 60.9286L128.692 34.8052L104.473 48.6215Z" fill="#393939"/>
<path d="M125.233 14.0735L115.398 49.4808L145.988 48.6226L125.233 14.0735Z" fill="#343434"/>
<path d="M125.23 14.0735L104.473 48.6226L125.23 39.1512V14.0735Z" fill="#8C8C8C"/>
<path d="M125.23 81.914L125.74 65.1591L104.473 52.5698L125.23 81.914Z" fill="#8C8C8C"/>
<path d="M125.23 64.8741V81.914L145.999 52.5698L125.23 64.8741Z" fill="#3C3C3B"/>
<path d="M125.23 60.9292L145.985 48.6221L125.23 39.1565V60.9292Z" fill="#141414"/>
<rect width="100" height="96" rx="48" fill="#222222"/>
<path fill-rule="evenodd" clip-rule="evenodd" d="M22.0039 30.5065H32.6029V21.1199L75.0039 21.1199L75.0039 74.8799L32.6027 74.8799V65.4932H22.0039L22.0039 30.5065ZM40.8021 29.7599H65.2317V39.2469H40.8021V29.7599ZM65.2317 56.6398H40.8021V39.2475H31.0302L31.0302 56.6404H40.8021V66.1269H65.2317V56.6398Z" fill="#06FC99"/>
</g>
<defs>
<clipPath id="clip0_2585_13924">
<rect width="172" height="96" fill="white"/>
</clipPath>
</defs>
</svg>
