<svg width="170" height="96" viewBox="0 0 170 96" fill="none" xmlns="http://www.w3.org/2000/svg">
<rect x="74" width="96" height="96" rx="48" fill="#06FC99"/>
<path fill-rule="evenodd" clip-rule="evenodd" d="M140.235 75.0684L95.115 75.0684L95.115 20.7324L95.1196 20.7324L95.1196 29.9688L103.953 29.9688L103.953 20.7324L148.875 20.7324L148.875 65.6604L140.235 65.6604L140.235 75.0684ZM140.234 29.7559L140.234 65.6599L130.826 65.6599L130.826 57.0684L122.057 57.0684L122.057 47.5938L113.356 47.5938L113.356 65.6159L103.953 65.6159L103.953 29.9805L113.356 29.9805L113.356 38.0936L122.172 38.0936L122.172 47.5682L130.826 47.5682L130.826 29.7559L140.234 29.7559Z" fill="black"/>
<rect width="96" height="96" rx="48" fill="#222222"/>
<path fill-rule="evenodd" clip-rule="evenodd" d="M21.1211 30.5065H31.2958V21.1199L72.0011 21.1199L72.0011 74.8799L31.2952 74.8799V65.4932H21.1211L21.1211 30.5065ZM39.1682 29.7599H62.6207V39.2469H39.1682V29.7599ZM62.6207 56.6398H39.1682V39.2475H29.7872L29.7872 56.6404H39.1682V66.1269H62.6207V56.6398Z" fill="#06FC99"/>
</svg>
