<svg width="170" height="96" viewBox="0 0 170 96" fill="none" xmlns="http://www.w3.org/2000/svg">
<g clip-path="url(#clip0_2585_13909)">
<mask id="mask0_2585_13909" style="mask-type:luminance" maskUnits="userSpaceOnUse" x="74" y="0" width="96" height="96">
<path d="M170 0H74V96H170V0Z" fill="white"/>
</mask>
<g mask="url(#mask0_2585_13909)">
<path d="M122 96C148.51 96 170 74.5097 170 48C170 21.4903 148.51 0 122 0C95.4903 0 74 21.4903 74 48C74 74.5097 95.4903 96 122 96Z" fill="#2E3148"/>
<path d="M122 75.8522C137.383 75.8522 149.852 63.3825 149.852 48.0003C149.852 32.6182 137.383 20.1484 122 20.1484C106.618 20.1484 94.1484 32.6182 94.1484 48.0003C94.1484 63.3825 106.618 75.8522 122 75.8522Z" fill="#1B1E36"/>
<path d="M122.097 6.12402C116.916 6.12402 112.715 24.917 112.715 48.0994C112.715 71.2819 116.916 90.0749 122.097 90.0749C127.279 90.0749 131.48 71.2819 131.48 48.0994C131.48 24.917 127.279 6.12402 122.097 6.12402ZM122.745 87.706C122.153 88.4962 121.56 87.9033 121.56 87.9033C119.174 85.1385 117.981 80.0022 117.981 80.0022C113.807 66.5702 114.801 37.7307 114.801 37.7307C116.762 14.8351 120.33 9.42642 121.545 8.22566C121.669 8.1031 121.832 8.02821 122.006 8.01417C122.179 8.00012 122.352 8.04781 122.495 8.14886C124.256 9.39724 125.734 14.6181 125.734 14.6181C130.097 30.8156 129.702 46.0255 129.702 46.0255C130.097 59.26 127.516 74.0747 127.516 74.0747C125.529 85.3336 122.745 87.706 122.745 87.706Z" fill="#6F7390"/>
<path d="M158.509 27.2099C155.929 22.714 137.539 28.4226 117.421 39.9587C97.3023 51.4948 83.1112 64.4921 85.689 68.986C88.2668 73.48 106.659 67.7733 126.777 56.2372C146.895 44.7011 161.086 31.7038 158.509 27.2099ZM88.069 68.3693C87.0813 68.2449 87.3044 67.4331 87.3044 67.4331C88.516 63.9882 92.3713 60.3971 92.3713 60.3971C101.949 50.0921 127.461 36.6025 127.461 36.6025C148.295 26.9096 154.766 27.3186 156.407 27.7705C156.576 27.8176 156.722 27.9227 156.821 28.0673C156.919 28.212 156.963 28.3868 156.945 28.5608C156.747 30.7112 152.945 34.5896 152.945 34.5896C141.075 46.4395 127.684 53.6671 127.684 53.6671C116.401 60.5983 102.266 65.7282 102.266 65.7282C91.5104 69.6039 88.069 68.3693 88.069 68.3693Z" fill="#6F7390"/>
<path d="M158.416 69.1363C161.016 64.6523 146.86 51.5956 126.813 39.9726C106.765 28.3497 88.3773 22.5705 85.78 27.0622C83.1826 31.5538 97.3357 44.6029 117.395 56.2258C137.454 67.8487 155.818 73.6283 158.416 69.1363ZM87.5026 28.7948C87.1186 27.8843 87.9292 27.6651 87.9292 27.6651C91.5181 26.9873 96.5592 28.5318 96.5592 28.5318C110.274 31.6548 134.729 46.9734 134.729 46.9734C153.557 60.1488 156.445 65.9522 156.878 67.5995C156.922 67.7685 156.905 67.9476 156.83 68.1052C156.754 68.2628 156.626 68.3887 156.467 68.4608C154.504 69.3598 149.245 68.0204 149.245 68.0204C133.038 63.6747 120.076 55.7124 120.076 55.7124C108.429 49.4309 96.9133 39.7657 96.9133 39.7657C88.1627 32.3979 87.5053 28.8048 87.5053 28.8048L87.5026 28.7948Z" fill="#6F7390"/>
<path d="M122.001 52.938C124.728 52.938 126.939 50.7271 126.939 47.9998C126.939 45.2724 124.728 43.0615 122.001 43.0615C119.273 43.0615 117.062 45.2724 117.062 47.9998C117.062 50.7271 119.273 52.938 122.001 52.938Z" fill="#B7B9C8"/>
<path d="M142.247 32.0001C143.829 32.0001 145.111 30.6736 145.111 29.0372C145.111 27.4008 143.829 26.0742 142.247 26.0742C140.665 26.0742 139.383 27.4008 139.383 29.0372C139.383 30.6736 140.665 32.0001 142.247 32.0001Z" fill="#B7B9C8"/>
<path d="M95.2354 42.0743C96.8173 42.0743 98.0996 40.7478 98.0996 39.1114C98.0996 37.475 96.8173 36.1484 95.2354 36.1484C93.6535 36.1484 92.3711 37.475 92.3711 39.1114C92.3711 40.7478 93.6535 42.0743 95.2354 42.0743Z" fill="#B7B9C8"/>
<path d="M116.173 78.42C117.755 78.42 119.037 77.0935 119.037 75.4571C119.037 73.8207 117.755 72.4941 116.173 72.4941C114.591 72.4941 113.309 73.8207 113.309 75.4571C113.309 77.0935 114.591 78.42 116.173 78.42Z" fill="#B7B9C8"/>
</g>
<rect width="96" height="96" rx="48" fill="#222222"/>
<path fill-rule="evenodd" clip-rule="evenodd" d="M21.1211 30.5065H31.2958V21.1199L72.0011 21.1199L72.0011 74.8799L31.2952 74.8799V65.4932H21.1211L21.1211 30.5065ZM39.1682 29.7599H62.6207V39.2469H39.1682V29.7599ZM62.6207 56.6398H39.1682V39.2475H29.7872L29.7872 56.6404H39.1682V66.1269H62.6207V56.6398Z" fill="#06FC99"/>
</g>
<defs>
<clipPath id="clip0_2585_13909">
<rect width="170" height="96" fill="white"/>
</clipPath>
</defs>
</svg>
