<svg width="167" height="96" viewBox="0 0 167 96" fill="none" xmlns="http://www.w3.org/2000/svg">
<g clip-path="url(#clip0_1147_3462)">
<path d="M118.5 96C145.01 96 166.5 74.5097 166.5 48C166.5 21.4903 145.01 0 118.5 0C91.9903 0 70.5 21.4903 70.5 48C70.5 74.5097 91.9903 96 118.5 96Z" fill="#2E3148"/>
<path d="M118.5 75.8522C133.883 75.8522 146.352 63.3825 146.352 48.0003C146.352 32.6182 133.883 20.1484 118.5 20.1484C103.118 20.1484 90.6484 32.6182 90.6484 48.0003C90.6484 63.3825 103.118 75.8522 118.5 75.8522Z" fill="#1B1E36"/>
<path d="M118.598 6.12402C113.417 6.12402 109.216 24.917 109.216 48.0994C109.216 71.2819 113.417 90.0749 118.598 90.0749C123.78 90.0749 127.981 71.2819 127.981 48.0994C127.981 24.917 123.78 6.12402 118.598 6.12402ZM119.246 87.706C118.654 88.4962 118.061 87.9033 118.061 87.9033C115.675 85.1385 114.482 80.0022 114.482 80.0022C110.308 66.5702 111.302 37.7307 111.302 37.7307C113.263 14.8351 116.831 9.42642 118.046 8.22566C118.17 8.1031 118.333 8.02821 118.507 8.01417C118.68 8.00012 118.853 8.04781 118.996 8.14886C120.757 9.39724 122.235 14.6181 122.235 14.6181C126.598 30.8156 126.203 46.0255 126.203 46.0255C126.598 59.26 124.017 74.0747 124.017 74.0747C122.03 85.3336 119.246 87.706 119.246 87.706Z" fill="#6F7390"/>
<path d="M155.008 27.2099C152.428 22.714 134.038 28.4226 113.92 39.9587C93.8014 51.4948 79.6103 64.4921 82.1881 68.986C84.7659 73.48 103.158 67.7733 123.276 56.2372C143.394 44.7011 157.585 31.7038 155.008 27.2099V27.2099ZM84.5681 68.3693C83.5804 68.2449 83.8035 67.4331 83.8035 67.4331C85.0151 63.9882 88.8704 60.3971 88.8704 60.3971C98.4485 50.0921 123.96 36.6025 123.96 36.6025C144.794 26.9096 151.265 27.3186 152.906 27.7705C153.075 27.8176 153.221 27.9227 153.32 28.0673C153.418 28.212 153.462 28.3868 153.444 28.5608C153.246 30.7112 149.444 34.5896 149.444 34.5896C137.574 46.4395 124.183 53.6671 124.183 53.6671C112.9 60.5983 98.765 65.7282 98.765 65.7282C88.0095 69.6039 84.5685 68.3693 84.5685 68.3693H84.5681Z" fill="#6F7390"/>
<path d="M154.917 69.1363C157.517 64.6523 143.361 51.5956 123.314 39.9726C103.266 28.3497 84.8783 22.5705 82.281 27.0622C79.6836 31.5538 93.8367 44.6029 113.896 56.2258C133.955 67.8487 152.319 73.6283 154.917 69.1363ZM84.0036 28.7948C83.6196 27.8843 84.4302 27.6651 84.4302 27.6651C88.0191 26.9873 93.0602 28.5318 93.0602 28.5318C106.775 31.6548 131.23 46.9734 131.23 46.9734C150.058 60.1488 152.946 65.9522 153.379 67.5995C153.423 67.7685 153.406 67.9476 153.331 68.1052C153.255 68.2628 153.127 68.3887 152.968 68.4608C151.005 69.3598 145.746 68.0204 145.746 68.0204C129.539 63.6747 116.577 55.7124 116.577 55.7124C104.93 49.4309 93.4143 39.7657 93.4143 39.7657C84.6637 32.3979 84.0063 28.8048 84.0063 28.8048L84.0036 28.7948Z" fill="#6F7390"/>
<path d="M118.5 52.938C121.227 52.938 123.438 50.7271 123.438 47.9998C123.438 45.2724 121.227 43.0615 118.5 43.0615C115.772 43.0615 113.562 45.2724 113.562 47.9998C113.562 50.7271 115.772 52.938 118.5 52.938Z" fill="#B7B9C8"/>
<path d="M138.746 32.0001C140.328 32.0001 141.61 30.6736 141.61 29.0372C141.61 27.4008 140.328 26.0742 138.746 26.0742C137.164 26.0742 135.882 27.4008 135.882 29.0372C135.882 30.6736 137.164 32.0001 138.746 32.0001Z" fill="#B7B9C8"/>
<path d="M91.7344 42.0743C93.3163 42.0743 94.5986 40.7478 94.5986 39.1114C94.5986 37.475 93.3163 36.1484 91.7344 36.1484C90.1525 36.1484 88.8701 37.475 88.8701 39.1114C88.8701 40.7478 90.1525 42.0743 91.7344 42.0743Z" fill="#B7B9C8"/>
<path d="M112.673 78.42C114.255 78.42 115.537 77.0935 115.537 75.4571C115.537 73.8207 114.255 72.4941 112.673 72.4941C111.091 72.4941 109.809 73.8207 109.809 75.4571C109.809 77.0935 111.091 78.42 112.673 78.42Z" fill="#B7B9C8"/>
</g>
<circle cx="48.5" cy="48" r="46.5" fill="black" stroke="#06FC99" stroke-width="3"/>
<g filter="url(#filter0_f_1147_3462)">
<path d="M47.1187 10.9501C28.4416 9.29881 9.76465 25.9247 9.76465 47.4137" stroke="#18FF75"/>
</g>
<path fill-rule="evenodd" clip-rule="evenodd" d="M69.7729 25.0908L69.7729 70.91H27.2266V70.9096H35.204V62.8239H27.2266V33.1766H35.204V25.0908H69.7729ZM41.8519 33.1769H61.7955V41.2627H41.8519V33.1769ZM61.7955 56.0865H41.8519V41.263H33.8744L33.8744 56.0869H41.8519L41.8519 64.1723H61.7955V56.0865Z" fill="#06FC99"/>
<defs>
<filter id="filter0_f_1147_3462" x="1.26465" y="2.33691" width="53.8984" height="53.0771" filterUnits="userSpaceOnUse" color-interpolation-filters="sRGB">
<feFlood flood-opacity="0" result="BackgroundImageFix"/>
<feBlend mode="normal" in="SourceGraphic" in2="BackgroundImageFix" result="shape"/>
<feGaussianBlur stdDeviation="4" result="effect1_foregroundBlur_1147_3462"/>
</filter>
<clipPath id="clip0_1147_3462">
<rect width="96" height="96" fill="white" transform="translate(70.5)"/>
</clipPath>
</defs>
</svg>
