<svg width="171" height="106" viewBox="0 0 171 106" fill="none" xmlns="http://www.w3.org/2000/svg">
<path d="M122.5 98C131.796 98 140.883 95.2435 148.612 90.0791C156.341 84.9147 162.365 77.5743 165.922 68.9861C169.48 60.398 170.41 50.9479 168.597 41.8308C166.783 32.7137 162.307 24.3391 155.734 17.766C149.161 11.1929 140.786 6.71662 131.669 4.90311C122.552 3.08961 113.102 4.02036 104.514 7.57768C95.9257 11.135 88.5854 17.1591 83.4209 24.8882C78.2565 32.6173 75.5 41.7043 75.5 51C75.5 63.4652 80.4518 75.4198 89.266 84.234C98.0802 93.0482 110.035 98 122.5 98Z" fill="#2775C9"/>
<path d="M135.444 58.4687C135.444 51.6146 131.273 49.3037 123.204 48.1973C117.241 47.3356 116.095 45.9354 116.095 43.1546C116.095 40.3737 118.113 38.6406 121.97 38.6406C125.486 38.6406 127.513 39.8646 128.345 42.6944C128.433 43.0041 128.619 43.2771 128.875 43.4728C129.131 43.6686 129.443 43.7768 129.765 43.7812H132.849C133.05 43.7854 133.25 43.7451 133.434 43.6633C133.619 43.5814 133.782 43.4599 133.914 43.3075C134.046 43.1551 134.143 42.9755 134.197 42.7816C134.252 42.5876 134.263 42.3839 134.23 42.1852C133.25 37.7104 130.235 35.0177 125.505 34.1756V29.456C125.505 29.0665 125.35 28.6929 125.075 28.4175C124.8 28.142 124.426 27.9873 124.036 27.9873H121.099C120.709 27.9873 120.336 28.142 120.06 28.4175C119.785 28.6929 119.63 29.0665 119.63 29.456V34.0091C113.755 34.8316 110.044 38.7091 110.044 43.6833C110.044 50.1164 113.961 52.6133 122.147 53.7198C127.718 54.6304 129.304 55.8348 129.304 58.9975C129.304 62.1602 126.612 64.285 122.813 64.285C117.691 64.285 115.958 62.0427 115.381 59.1346C115.313 58.8009 115.134 58.5003 114.872 58.2829C114.61 58.0655 114.282 57.9445 113.941 57.94H110.593C110.393 57.9387 110.195 57.9811 110.013 58.0643C109.832 58.1474 109.67 58.2693 109.541 58.4213C109.411 58.5734 109.316 58.7519 109.263 58.9445C109.209 59.137 109.199 59.3389 109.231 59.536C110.083 64.4319 113.226 68.0156 119.63 68.8773V73.5185C119.63 73.9081 119.785 74.2817 120.06 74.5571C120.336 74.8325 120.709 74.9873 121.099 74.9873H124.036C124.426 74.9873 124.8 74.8325 125.075 74.5571C125.35 74.2817 125.505 73.9081 125.505 73.5185V68.8773C131.576 67.9177 135.444 63.7269 135.444 58.4687Z" fill="white"/>
<path d="M112.491 79.0808C106.833 77.0149 101.947 73.2597 98.4953 68.3241C95.0432 63.3885 93.1917 57.511 93.1917 51.4879C93.1917 45.4649 95.0432 39.5874 98.4953 34.6518C101.947 29.7161 106.833 25.961 112.491 23.895C112.854 23.7358 113.164 23.4779 113.388 23.1507C113.611 22.8235 113.738 22.4402 113.754 22.0444V19.3027C113.778 19.0599 113.737 18.8152 113.636 18.5932C113.535 18.3712 113.377 18.1796 113.179 18.0377C112.98 17.8958 112.748 17.8087 112.505 17.7849C112.263 17.7612 112.018 17.8018 111.796 17.9025C104.671 20.1733 98.4529 24.6511 94.0405 30.6885C89.6281 36.7259 87.25 44.01 87.25 51.4879C87.25 58.9658 89.6281 66.25 94.0405 72.2874C98.4529 78.3248 104.671 82.8025 111.796 85.0733C112.018 85.1741 112.263 85.2147 112.505 85.1909C112.748 85.1672 112.98 85.08 113.179 84.9382C113.377 84.7963 113.535 84.6047 113.636 84.3827C113.737 84.1606 113.778 83.9159 113.754 83.6731V80.9315C113.738 80.5357 113.611 80.1523 113.388 79.8251C113.164 79.498 112.854 79.2401 112.491 79.0808Z" fill="white"/>
<path d="M133.337 17.9025C133.115 17.8018 132.87 17.7612 132.627 17.7849C132.384 17.8087 132.152 17.8958 131.954 18.0377C131.755 18.1796 131.598 18.3712 131.497 18.5932C131.396 18.8152 131.355 19.0599 131.379 19.3027V22.0444C131.395 22.4402 131.522 22.8235 131.745 23.1507C131.968 23.4779 132.279 23.7358 132.642 23.895C138.299 25.961 143.185 29.7161 146.637 34.6518C150.089 39.5874 151.941 45.4649 151.941 51.4879C151.941 57.511 150.089 63.3885 146.637 68.3241C143.185 73.2597 138.299 77.0149 132.642 79.0808C132.267 79.2231 131.945 79.4767 131.719 79.8077C131.493 80.1386 131.374 80.5308 131.379 80.9315V83.6731C131.355 83.9159 131.396 84.1606 131.497 84.3827C131.598 84.6047 131.755 84.7963 131.954 84.9382C132.152 85.08 132.384 85.1672 132.627 85.1909C132.87 85.2147 133.115 85.1741 133.337 85.0733C140.462 82.8025 146.68 78.3248 151.092 72.2874C155.504 66.25 157.883 58.9658 157.883 51.4879C157.883 44.01 155.504 36.7259 151.092 30.6885C146.68 24.6511 140.462 20.1733 133.337 17.9025Z" fill="white"/>
<g filter="url(#filter0_di_1147_3517)">
<circle cx="52.5" cy="51" r="48" fill="url(#paint0_linear_1147_3517)"/>
</g>
<path d="M32.5262 52.088L71.5455 45.5327V48.7583L32.5262 55.3136V52.088ZM66.8632 69.5166H61.4005L41.5267 38.6653H41.3186C41.3532 39.2896 41.3879 39.9833 41.4226 40.7463C41.492 41.5094 41.544 42.3418 41.5787 43.2436C41.6134 44.1107 41.6481 45.0124 41.6827 45.9489C41.7174 46.8854 41.7348 47.8218 41.7348 48.7583V69.5166H37.4166V32.3702H42.8273L62.6491 63.1174H62.8572C62.8226 62.7012 62.7879 62.1289 62.7532 61.4006C62.7185 60.6375 62.6838 59.8051 62.6491 58.9033C62.6145 57.9669 62.5798 57.0131 62.5451 56.0419C62.5104 55.0708 62.4931 54.169 62.4931 53.3366V32.3702H66.8632V69.5166Z" fill="white"/>
<defs>
<filter id="filter0_di_1147_3517" x="0.370968" y="0.935484" width="104.258" height="104.258" filterUnits="userSpaceOnUse" color-interpolation-filters="sRGB">
<feFlood flood-opacity="0" result="BackgroundImageFix"/>
<feColorMatrix in="SourceAlpha" type="matrix" values="0 0 0 0 0 0 0 0 0 0 0 0 0 0 0 0 0 0 127 0" result="hardAlpha"/>
<feOffset dy="2.06452"/>
<feGaussianBlur stdDeviation="2.06452"/>
<feComposite in2="hardAlpha" operator="out"/>
<feColorMatrix type="matrix" values="0 0 0 0 0 0 0 0 0 0 0 0 0 0 0 0 0 0 0.12 0"/>
<feBlend mode="normal" in2="BackgroundImageFix" result="effect1_dropShadow_1147_3517"/>
<feBlend mode="normal" in="SourceGraphic" in2="effect1_dropShadow_1147_3517" result="shape"/>
<feColorMatrix in="SourceAlpha" type="matrix" values="0 0 0 0 0 0 0 0 0 0 0 0 0 0 0 0 0 0 127 0" result="hardAlpha"/>
<feOffset dy="2.06452"/>
<feGaussianBlur stdDeviation="4.12903"/>
<feComposite in2="hardAlpha" operator="arithmetic" k2="-1" k3="1"/>
<feColorMatrix type="matrix" values="0 0 0 0 0.0847917 0 0 0 0 0.21505 0 0 0 0 0.55 0 0 0 0.25 0"/>
<feBlend mode="normal" in2="shape" result="effect2_innerShadow_1147_3517"/>
</filter>
<linearGradient id="paint0_linear_1147_3517" x1="52.5" y1="3" x2="52.5" y2="99" gradientUnits="userSpaceOnUse">
<stop stop-color="#45FFB4"/>
<stop offset="1" stop-color="#25BA7E"/>
</linearGradient>
</defs>
</svg>
