<svg width="168" height="96" viewBox="0 0 168 96" fill="none" xmlns="http://www.w3.org/2000/svg">
<g clip-path="url(#clip0_2585_13951)">
<path d="M121 96C130.296 96 139.383 93.1849 147.112 87.9106C154.841 82.6363 160.865 75.1397 164.422 66.3688C167.98 57.598 168.91 47.9468 167.097 38.6357C165.283 29.3246 160.807 20.7718 154.234 14.0589C147.661 7.34594 139.286 2.77442 130.169 0.922326C121.052 -0.929759 111.602 0.0207942 103.014 3.6538C94.4257 7.28681 87.0854 13.4391 81.9209 21.3326C76.7565 29.2262 74 38.5065 74 48C74 60.7304 78.9518 72.9394 87.766 81.9411C96.5802 90.9428 108.535 96 121 96Z" fill="#2775C9"/>
<path d="M133.942 55.6275C133.942 48.6276 129.771 46.2675 121.702 45.1376C115.739 44.2575 114.593 42.8275 114.593 39.9876C114.593 37.1475 116.611 35.3775 120.468 35.3775C123.984 35.3775 126.011 36.6276 126.843 39.5176C126.931 39.8339 127.117 40.1127 127.373 40.3125C127.629 40.5125 127.941 40.623 128.263 40.6275H131.347C131.548 40.6318 131.748 40.5906 131.932 40.5071C132.117 40.4234 132.28 40.2994 132.412 40.1437C132.544 39.9881 132.641 39.8047 132.695 39.6066C132.75 39.4085 132.761 39.2005 132.728 38.9975C131.748 34.4275 128.733 31.6775 124.003 30.8175V25.9975C124.003 25.5997 123.848 25.2182 123.573 24.9369C123.298 24.6555 122.924 24.4976 122.534 24.4976H119.597C119.207 24.4976 118.834 24.6555 118.558 24.9369C118.283 25.2182 118.128 25.5997 118.128 25.9975V30.6475C112.253 31.4875 108.542 35.4475 108.542 40.5275C108.542 47.0975 112.459 49.6475 120.645 50.7776C126.216 51.7075 127.802 52.9376 127.802 56.1676C127.802 59.3975 125.11 61.5676 121.311 61.5676C116.189 61.5676 114.456 59.2775 113.879 56.3076C113.811 55.9668 113.632 55.6598 113.37 55.4377C113.108 55.2157 112.78 55.0921 112.439 55.0875H109.091C108.891 55.0862 108.693 55.1295 108.511 55.2145C108.33 55.2994 108.168 55.4239 108.039 55.5791C107.909 55.7344 107.814 55.9167 107.761 56.1134C107.707 56.31 107.697 56.5162 107.729 56.7175C108.581 61.7176 111.724 65.3775 118.128 66.2576V70.9975C118.128 71.3954 118.283 71.7769 118.558 72.0582C118.834 72.3395 119.207 72.4976 119.597 72.4976H122.534C122.924 72.4976 123.298 72.3395 123.573 72.0582C123.848 71.7769 124.003 71.3954 124.003 70.9975V66.2576C130.074 65.2775 133.942 60.9976 133.942 55.6275Z" fill="white"/>
<path d="M110.991 76.6783C105.333 74.5685 100.447 70.7334 96.9953 65.6927C93.5432 60.6521 91.6917 54.6496 91.6917 48.4983C91.6917 42.3472 93.5432 36.3446 96.9953 31.304C100.447 26.2633 105.333 22.4283 110.991 20.3184C111.354 20.1558 111.664 19.8924 111.888 19.5582C112.111 19.2241 112.238 18.8326 112.254 18.4284V15.6283C112.278 15.3804 112.237 15.1305 112.136 14.9037C112.035 14.677 111.877 14.4813 111.679 14.3364C111.48 14.1915 111.248 14.1026 111.005 14.0783C110.763 14.054 110.518 14.0955 110.296 14.1984C103.171 16.5175 96.9529 21.0905 92.5405 27.2564C88.1281 33.4223 85.75 40.8613 85.75 48.4983C85.75 56.1353 88.1281 63.5745 92.5405 69.7404C96.9529 75.9062 103.171 80.4792 110.296 82.7983C110.518 82.9013 110.763 82.9427 111.005 82.9184C111.248 82.8942 111.48 82.8052 111.679 82.6603C111.877 82.5154 112.035 82.3197 112.136 82.093C112.237 81.8662 112.278 81.6163 112.254 81.3683V78.5684C112.238 78.1642 112.111 77.7726 111.888 77.4385C111.664 77.1044 111.354 76.841 110.991 76.6783Z" fill="white"/>
<path d="M131.836 14.1984C131.614 14.0955 131.369 14.054 131.126 14.0783C130.883 14.1026 130.651 14.1915 130.453 14.3364C130.254 14.4813 130.097 14.677 129.996 14.9037C129.895 15.1305 129.854 15.3804 129.878 15.6283V18.4284C129.894 18.8326 130.021 19.2241 130.244 19.5582C130.467 19.8924 130.778 20.1558 131.141 20.3184C136.798 22.4283 141.684 26.2633 145.136 31.304C148.588 36.3446 150.44 42.3472 150.44 48.4983C150.44 54.6496 148.588 60.6521 145.136 65.6927C141.684 70.7334 136.798 74.5685 131.141 76.6783C130.766 76.8236 130.444 77.0826 130.218 77.4207C129.992 77.7586 129.873 78.1592 129.878 78.5684V81.3683C129.854 81.6163 129.895 81.8662 129.996 82.093C130.097 82.3197 130.254 82.5154 130.453 82.6603C130.651 82.8052 130.883 82.8942 131.126 82.9184C131.369 82.9427 131.614 82.9013 131.836 82.7983C138.961 80.4792 145.179 75.9062 149.591 69.7404C154.003 63.5745 156.382 56.1353 156.382 48.4983C156.382 40.8613 154.003 33.4223 149.591 27.2564C145.179 21.0905 138.961 16.5175 131.836 14.1984Z" fill="white"/>
<rect width="96" height="96" rx="48" fill="#06FC99"/>
<path fill-rule="evenodd" clip-rule="evenodd" d="M66.235 75.0684L21.115 75.0684L21.115 20.7324L21.1196 20.7324L21.1196 29.9688L29.9531 29.9688L29.9531 20.7324L74.875 20.7324L74.875 65.6604L66.235 65.6604L66.235 75.0684ZM66.2344 29.7559L66.2344 65.6599L56.8264 65.6599L56.8264 57.0684L48.0571 57.0684L48.0571 47.5938L39.3563 47.5938L39.3563 65.6159L29.9531 65.6159L29.9531 29.9805L39.3563 29.9805L39.3563 38.0936L48.1719 38.0936L48.1719 47.5682L56.8264 47.5682L56.8264 29.7559L66.2344 29.7559Z" fill="black"/>
</g>
<defs>
<clipPath id="clip0_2585_13951">
<rect width="168" height="96" fill="white"/>
</clipPath>
</defs>
</svg>
