<svg width="172" height="106" viewBox="0 0 172 106" fill="none" xmlns="http://www.w3.org/2000/svg">
<path d="M123.72 98C133.015 98 142.102 95.2435 149.832 90.0791C157.561 84.9146 163.585 77.5743 167.142 68.9861C170.699 60.398 171.63 50.9479 169.817 41.8308C168.003 32.7137 163.527 24.3391 156.954 17.766C150.381 11.1929 142.006 6.71662 132.889 4.90311C123.772 3.08961 114.322 4.02036 105.734 7.57768C97.1455 11.135 89.8051 17.1591 84.6407 24.8882C79.4762 32.6173 76.7197 41.7043 76.7197 51C76.7197 63.4652 81.6715 75.4198 90.4857 84.234C99.2999 93.0482 111.255 98 123.72 98Z" fill="#22A079"/>
<path d="M129.36 54.9146V54.9072C129.044 54.9293 127.409 55.025 123.771 55.025C120.863 55.025 118.823 54.9441 118.101 54.9072V54.9146C106.916 54.4212 98.5727 52.4772 98.5727 50.1429C98.5727 47.816 106.923 45.8646 118.101 45.3712V52.9779C118.83 53.0295 120.929 53.1547 123.823 53.1547C127.299 53.1547 129.036 53.0074 129.36 52.9779V45.3786C140.524 45.8793 148.845 47.8233 148.845 50.1503C148.845 52.4772 140.517 54.4212 129.36 54.922V54.9146ZM129.36 44.5906V37.7866H144.935V27.4111H102.534V37.7866H118.109V44.5906C105.45 45.1724 95.9365 47.6761 95.9365 50.6805C95.9365 53.6849 105.458 56.1885 118.109 56.7776V78.589H129.368V56.7776C142.004 56.1959 151.503 53.6922 151.503 50.6878C151.503 47.6908 142.004 45.1797 129.368 44.598" fill="#FEFEFE"/>
<g filter="url(#filter0_di_1147_3526)">
<circle cx="53" cy="51" r="48" fill="url(#paint0_linear_1147_3526)"/>
</g>
<path d="M33.0262 52.088L72.0455 45.5327V48.7583L33.0262 55.3136V52.088ZM67.3632 69.5166H61.9005L42.0267 38.6653H41.8186C41.8532 39.2896 41.8879 39.9833 41.9226 40.7463C41.992 41.5094 42.044 42.3418 42.0787 43.2436C42.1134 44.1107 42.1481 45.0124 42.1827 45.9489C42.2174 46.8854 42.2348 47.8218 42.2348 48.7583V69.5166H37.9166V32.3702H43.3273L63.1491 63.1174H63.3572C63.3226 62.7012 63.2879 62.1289 63.2532 61.4006C63.2185 60.6375 63.1838 59.8051 63.1491 58.9033C63.1145 57.9669 63.0798 57.0131 63.0451 56.0419C63.0104 55.0708 62.9931 54.169 62.9931 53.3366V32.3702H67.3632V69.5166Z" fill="white"/>
<defs>
<filter id="filter0_di_1147_3526" x="0.870968" y="0.935484" width="104.258" height="104.258" filterUnits="userSpaceOnUse" color-interpolation-filters="sRGB">
<feFlood flood-opacity="0" result="BackgroundImageFix"/>
<feColorMatrix in="SourceAlpha" type="matrix" values="0 0 0 0 0 0 0 0 0 0 0 0 0 0 0 0 0 0 127 0" result="hardAlpha"/>
<feOffset dy="2.06452"/>
<feGaussianBlur stdDeviation="2.06452"/>
<feComposite in2="hardAlpha" operator="out"/>
<feColorMatrix type="matrix" values="0 0 0 0 0 0 0 0 0 0 0 0 0 0 0 0 0 0 0.12 0"/>
<feBlend mode="normal" in2="BackgroundImageFix" result="effect1_dropShadow_1147_3526"/>
<feBlend mode="normal" in="SourceGraphic" in2="effect1_dropShadow_1147_3526" result="shape"/>
<feColorMatrix in="SourceAlpha" type="matrix" values="0 0 0 0 0 0 0 0 0 0 0 0 0 0 0 0 0 0 127 0" result="hardAlpha"/>
<feOffset dy="2.06452"/>
<feGaussianBlur stdDeviation="4.12903"/>
<feComposite in2="hardAlpha" operator="arithmetic" k2="-1" k3="1"/>
<feColorMatrix type="matrix" values="0 0 0 0 0.0847917 0 0 0 0 0.21505 0 0 0 0 0.55 0 0 0 0.25 0"/>
<feBlend mode="normal" in2="shape" result="effect2_innerShadow_1147_3526"/>
</filter>
<linearGradient id="paint0_linear_1147_3526" x1="53" y1="3" x2="53" y2="99" gradientUnits="userSpaceOnUse">
<stop stop-color="#45FFB4"/>
<stop offset="1" stop-color="#25BA7E"/>
</linearGradient>
</defs>
</svg>
