<svg width="170" height="102" viewBox="0 0 170 102" fill="none" xmlns="http://www.w3.org/2000/svg">
<path d="M122 99C131.295 99 140.382 96.1849 148.112 90.9106C155.841 85.6362 161.865 78.1397 165.422 69.3688C168.979 60.598 169.91 50.9468 168.097 41.6357C166.283 32.3246 161.807 23.7718 155.234 17.0589C148.661 10.3459 140.286 5.77442 131.169 3.92233C122.052 2.07024 112.602 3.02079 104.014 6.6538C95.4258 10.2868 88.0854 16.4391 82.921 24.3326C77.7565 32.2262 75 41.5065 75 51C75 63.7304 79.9518 75.9394 88.766 84.9411C97.5802 93.9428 109.535 99 122 99Z" fill="#22A079"/>
<path d="M127.642 54.9979V54.9903C127.326 55.0129 125.691 55.1106 122.053 55.1106C119.145 55.1106 117.105 55.028 116.383 54.9903V54.9979C105.198 54.494 96.8549 52.5086 96.8549 50.1246C96.8549 47.7482 105.205 45.7553 116.383 45.2514V53.02C117.112 53.0727 119.211 53.2005 122.105 53.2005C125.581 53.2005 127.318 53.0501 127.642 53.02V45.259C138.806 45.7703 147.127 47.7557 147.127 50.1322C147.127 52.5086 138.799 54.494 127.642 55.0054V54.9979ZM127.642 44.4542V37.5054H143.217V26.9092H100.816V37.5054H116.391V44.4542C103.732 45.0484 94.2188 47.6053 94.2188 50.6737C94.2188 53.742 103.74 56.2989 116.391 56.9005V79.176H127.65V56.9005C140.286 56.3064 149.785 53.7495 149.785 50.6811C149.785 47.6204 140.286 45.0558 127.65 44.4618" fill="#FEFEFE"/>
<rect x="1" y="3" width="96" height="96" rx="48" fill="#06FC99"/>
<path fill-rule="evenodd" clip-rule="evenodd" d="M67.235 78.0684L22.115 78.0684L22.115 23.7324L22.1196 23.7324L22.1196 32.9688L30.9531 32.9688L30.9531 23.7324L75.875 23.7324L75.875 68.6604L67.235 68.6604L67.235 78.0684ZM67.2344 32.7559L67.2344 68.6599L57.8264 68.6599L57.8264 60.0684L49.0571 60.0684L49.0571 50.5938L40.3563 50.5938L40.3563 68.6159L30.9531 68.6159L30.9531 32.9805L40.3563 32.9805L40.3563 41.0936L49.1719 41.0936L49.1719 50.5682L57.8264 50.5682L57.8264 32.7559L67.2344 32.7559Z" fill="black"/>
</svg>
