<svg width="256" height="256" viewBox="0 0 256 256" fill="none" xmlns="http://www.w3.org/2000/svg">
<g clip-path="url(#clip0_55_2387)">
<path d="M256 0H0V256H256V0Z" fill="#3A3A3A"/>
<path fill-rule="evenodd" clip-rule="evenodd" d="M152.272 109.872C144.611 106.833 136.36 105.245 128.028 105.245C110.514 105.245 94.0413 112.165 81.6433 124.728C69.299 137.236 62.4408 153.851 62.3304 171.512L62.3158 173.884L64.3636 175.056C74.2333 180.707 85.3947 183.68 96.7048 183.68C97.0158 183.68 97.3294 183.678 97.6411 183.673C107.5 183.531 117.254 181.144 126.096 176.742C123.308 175.172 120.636 173.405 118.096 171.456C102.683 177.566 85.2157 176.813 70.4329 169.16C71.8708 138.167 97.227 113.341 128.028 113.341C136.594 113.341 145.056 115.249 152.698 118.872C152.796 115.872 152.655 112.864 152.272 109.872Z" fill="#06FC99"/>
<path fill-rule="evenodd" clip-rule="evenodd" d="M193.66 171.096C193.424 149.268 182.781 129.354 165.04 117.223C165.053 120.417 164.84 123.609 164.401 126.782C177.007 137.062 184.692 152.198 185.533 168.782C158.34 182.775 124.427 172.976 108.979 146.235C104.806 139.012 102.248 130.936 101.496 122.684C98.8719 124.114 96.3652 125.758 93.9988 127.602C95.2466 135.543 97.9582 143.255 102.005 150.259C110.792 165.47 124.92 176.376 141.784 180.966C147.505 182.523 153.323 183.294 159.108 183.294C170.381 183.294 181.532 180.369 191.623 174.637L193.684 173.465L193.66 171.096Z" fill="#06FC99"/>
<path fill-rule="evenodd" clip-rule="evenodd" d="M130.265 60.0743L128.239 58.88L126.214 60.0724C116.204 65.9605 107.888 74.4024 102.164 84.4849C97.2215 93.1923 94.298 102.946 93.6124 112.903C96.3525 111.265 99.2071 109.826 102.159 108.596C104.701 92.1828 114.197 77.3494 128.236 68.2848C154.021 84.9495 162.5 119.501 147.012 146.485C142.818 153.793 137.083 160.111 130.288 164.962C132.826 166.518 135.491 167.868 138.26 168.998C144.541 163.879 149.888 157.608 153.957 150.519C172.04 119.014 161.412 78.441 130.265 60.0743Z" fill="#06FC99"/>
<path fill-rule="evenodd" clip-rule="evenodd" d="M128.386 128.806C124.701 128.806 121.703 131.843 121.703 135.576C121.703 139.309 124.701 142.347 128.386 142.347C132.071 142.347 135.069 139.309 135.069 135.576C135.069 131.843 132.071 128.806 128.386 128.806ZM128.386 150.452C120.29 150.452 113.704 143.779 113.704 135.576C113.704 127.374 120.29 120.7 128.386 120.7C136.482 120.7 143.069 127.374 143.069 135.576C143.069 143.779 136.482 150.452 128.386 150.452Z" fill="#06FC99"/>
</g>
<defs>
<clipPath id="clip0_55_2387">
<rect width="256" height="256" rx="128" fill="white"/>
</clipPath>
</defs>
</svg>
