<svg width="94" height="94" viewBox="0 0 94 94" fill="none" xmlns="http://www.w3.org/2000/svg">
<rect width="94" height="94" fill="black"/>
<rect x="39.75" y="25" width="6.75" height="2.25" fill="#06FC99"/>
<rect x="26.25" y="40.75" width="6.75" height="2.25" transform="rotate(90 26.25 40.75)" fill="#06FC99"/>
<rect x="28.5" y="36.25" width="4.5" height="2.25" transform="rotate(90 28.5 36.25)" fill="#06FC99"/>
<rect x="39.75" y="29.5" width="4.5" height="2.25" transform="rotate(-180 39.75 29.5)" fill="#06FC99"/>
<rect x="35.25" y="31.75" width="4.5" height="2.25" transform="rotate(-180 35.25 31.75)" fill="#06FC99"/>
<rect x="30.75" y="36.25" width="2.25" height="4.5" transform="rotate(-180 30.75 36.25)" fill="#06FC99"/>
<rect x="69" y="40.75" width="6.75" height="2.25" transform="rotate(90 69 40.75)" fill="#06FC99"/>
<rect x="53.25" y="27.25" width="6.75" height="2.25" transform="rotate(-180 53.25 27.25)" fill="#06FC99"/>
<rect x="57.75" y="29.5" width="4.5" height="2.25" transform="rotate(-180 57.75 29.5)" fill="#06FC99"/>
<rect x="64.5" y="40.75" width="4.5" height="2.25" transform="rotate(-90 64.5 40.75)" fill="#06FC99"/>
<rect x="62.25" y="36.25" width="4.5" height="2.25" transform="rotate(-90 62.25 36.25)" fill="#06FC99"/>
<rect x="57.75" y="31.75" width="2.25" height="4.5" transform="rotate(-90 57.75 31.75)" fill="#06FC99"/>
<rect x="53.25" y="70" width="6.75" height="2.25" transform="rotate(-180 53.25 70)" fill="#06FC99"/>
<rect x="66.75" y="54.25" width="6.75" height="2.25" transform="rotate(-90 66.75 54.25)" fill="#06FC99"/>
<rect x="64.5" y="58.75" width="4.5" height="2.25" transform="rotate(-90 64.5 58.75)" fill="#06FC99"/>
<rect x="53.25" y="65.5" width="4.5" height="2.25" fill="#06FC99"/>
<rect x="57.75" y="63.25" width="4.5" height="2.25" fill="#06FC99"/>
<rect x="62.25" y="58.75" width="2.25" height="4.5" fill="#06FC99"/>
<rect x="24" y="54.25" width="6.75" height="2.25" transform="rotate(-90 24 54.25)" fill="#06FC99"/>
<rect x="39.75" y="67.75" width="6.75" height="2.25" fill="#06FC99"/>
<rect x="35.25" y="65.5" width="4.5" height="2.25" fill="#06FC99"/>
<rect x="28.5" y="54.25" width="4.5" height="2.25" transform="rotate(90 28.5 54.25)" fill="#06FC99"/>
<rect x="30.75" y="58.75" width="4.5" height="2.25" transform="rotate(90 30.75 58.75)" fill="#06FC99"/>
<rect x="35.25" y="63.25" width="2.25" height="4.5" transform="rotate(90 35.25 63.25)" fill="#06FC99"/>
<rect x="34.7988" y="47.0503" width="2.25" height="2.25" fill="#06FC99"/>
<rect x="34.7988" y="49.3002" width="2.25" height="2.25" fill="#06FC99"/>
<rect x="37.049" y="49.3002" width="2.25" height="2.25" fill="#06FC99"/>
<rect x="37.049" y="51.5502" width="2.25" height="2.25" fill="#06FC99"/>
<rect x="39.299" y="51.5502" width="2.25" height="2.25" fill="#06FC99"/>
<rect x="39.299" y="53.8003" width="2.25" height="2.25" fill="#06FC99"/>
<rect x="41.549" y="53.8003" width="2.25" height="2.25" fill="#06FC99"/>
<rect x="41.549" y="56.0503" width="2.25" height="2.25" fill="#06FC99"/>
<rect x="43.799" y="51.5502" width="2.25" height="2.25" fill="#06FC99"/>
<rect x="43.799" y="53.8003" width="2.25" height="2.25" fill="#06FC99"/>
<rect x="46.0488" y="49.3002" width="2.25" height="2.25" fill="#06FC99"/>
<rect x="46.0488" y="51.5502" width="2.25" height="2.25" fill="#06FC99"/>
<rect x="48.299" y="47.0503" width="2.25" height="2.25" fill="#06FC99"/>
<rect x="48.299" y="49.3002" width="2.25" height="2.25" fill="#06FC99"/>
<rect x="50.549" y="44.8003" width="2.25" height="2.25" fill="#06FC99"/>
<rect x="50.549" y="47.0503" width="2.25" height="2.25" fill="#06FC99"/>
<rect x="52.799" y="42.5503" width="2.25" height="2.25" fill="#06FC99"/>
<rect x="52.799" y="44.8003" width="2.25" height="2.25" fill="#06FC99"/>
<rect x="55.049" y="40.3002" width="2.25" height="2.25" fill="#06FC99"/>
<rect x="55.049" y="42.5503" width="2.25" height="2.25" fill="#06FC99"/>
<rect x="57.2988" y="38.0502" width="2.25" height="2.25" fill="#06FC99"/>
<rect x="57.2988" y="40.3002" width="2.25" height="2.25" fill="#06FC99"/>
</svg>
