<svg width="48" height="48" viewBox="0 0 48 48" fill="none" xmlns="http://www.w3.org/2000/svg">
<rect width="48" height="48" rx="4" fill="black"/>
<rect x="18.25" y="7" width="5.25" height="1.75" fill="#06FC99"/>
<rect x="7.75" y="19.25" width="5.25" height="1.75" transform="rotate(90 7.75 19.25)" fill="#06FC99"/>
<rect x="9.5" y="15.75" width="3.5" height="1.75" transform="rotate(90 9.5 15.75)" fill="#06FC99"/>
<rect x="18.25" y="10.5" width="3.5" height="1.75" transform="rotate(-180 18.25 10.5)" fill="#06FC99"/>
<rect x="14.75" y="12.25" width="3.5" height="1.75" transform="rotate(-180 14.75 12.25)" fill="#06FC99"/>
<rect x="11.25" y="15.75" width="1.75" height="3.5" transform="rotate(-180 11.25 15.75)" fill="#06FC99"/>
<rect x="41" y="19.25" width="5.25" height="1.75" transform="rotate(90 41 19.25)" fill="#06FC99"/>
<rect x="28.75" y="8.75" width="5.25" height="1.75" transform="rotate(-180 28.75 8.75)" fill="#06FC99"/>
<rect x="32.25" y="10.5" width="3.5" height="1.75" transform="rotate(-180 32.25 10.5)" fill="#06FC99"/>
<rect x="37.5" y="19.25" width="3.5" height="1.75" transform="rotate(-90 37.5 19.25)" fill="#06FC99"/>
<rect x="35.75" y="15.75" width="3.5" height="1.75" transform="rotate(-90 35.75 15.75)" fill="#06FC99"/>
<rect x="32.25" y="12.25" width="1.75" height="3.5" transform="rotate(-90 32.25 12.25)" fill="#06FC99"/>
<rect x="28.75" y="42" width="5.25" height="1.75" transform="rotate(-180 28.75 42)" fill="#06FC99"/>
<rect x="39.25" y="29.75" width="5.25" height="1.75" transform="rotate(-90 39.25 29.75)" fill="#06FC99"/>
<rect x="37.5" y="33.25" width="3.5" height="1.75" transform="rotate(-90 37.5 33.25)" fill="#06FC99"/>
<rect x="28.75" y="38.5" width="3.5" height="1.75" fill="#06FC99"/>
<rect x="32.25" y="36.75" width="3.5" height="1.75" fill="#06FC99"/>
<rect x="35.75" y="33.25" width="1.75" height="3.5" fill="#06FC99"/>
<rect x="6" y="29.75" width="5.25" height="1.75" transform="rotate(-90 6 29.75)" fill="#06FC99"/>
<rect x="18.25" y="40.25" width="5.25" height="1.75" fill="#06FC99"/>
<rect x="14.75" y="38.5" width="3.5" height="1.75" fill="#06FC99"/>
<rect x="9.5" y="29.75" width="3.5" height="1.75" transform="rotate(90 9.5 29.75)" fill="#06FC99"/>
<rect x="11.25" y="33.25" width="3.5" height="1.75" transform="rotate(90 11.25 33.25)" fill="#06FC99"/>
<rect x="14.75" y="36.75" width="1.75" height="3.5" transform="rotate(90 14.75 36.75)" fill="#06FC99"/>
<rect x="14.3992" y="24.1504" width="1.75" height="1.75" fill="#06FC99"/>
<rect x="14.3992" y="25.9004" width="1.75" height="1.75" fill="#06FC99"/>
<rect x="16.1492" y="25.9004" width="1.75" height="1.75" fill="#06FC99"/>
<rect x="16.1492" y="27.6504" width="1.75" height="1.75" fill="#06FC99"/>
<rect x="17.8992" y="27.6504" width="1.75" height="1.75" fill="#06FC99"/>
<rect x="17.8992" y="29.4004" width="1.75" height="1.75" fill="#06FC99"/>
<rect x="19.6492" y="29.4004" width="1.75" height="1.75" fill="#06FC99"/>
<rect x="19.6492" y="31.1504" width="1.75" height="1.75" fill="#06FC99"/>
<rect x="21.3992" y="27.6504" width="1.75" height="1.75" fill="#06FC99"/>
<rect x="21.3992" y="29.4004" width="1.75" height="1.75" fill="#06FC99"/>
<rect x="23.1492" y="25.9004" width="1.75" height="1.75" fill="#06FC99"/>
<rect x="23.1492" y="27.6504" width="1.75" height="1.75" fill="#06FC99"/>
<rect x="24.8992" y="24.1504" width="1.75" height="1.75" fill="#06FC99"/>
<rect x="24.8992" y="25.9004" width="1.75" height="1.75" fill="#06FC99"/>
<rect x="26.6492" y="22.4004" width="1.75" height="1.75" fill="#06FC99"/>
<rect x="26.6492" y="24.1504" width="1.75" height="1.75" fill="#06FC99"/>
<rect x="28.3992" y="20.6504" width="1.75" height="1.75" fill="#06FC99"/>
<rect x="28.3992" y="22.4004" width="1.75" height="1.75" fill="#06FC99"/>
<rect x="30.1492" y="18.9004" width="1.75" height="1.75" fill="#06FC99"/>
<rect x="30.1492" y="20.6504" width="1.75" height="1.75" fill="#06FC99"/>
<rect x="31.8992" y="17.1504" width="1.75" height="1.75" fill="#06FC99"/>
<rect x="31.8992" y="18.9004" width="1.75" height="1.75" fill="#06FC99"/>
</svg>
