<svg width="62" height="62" viewBox="0 0 62 62" fill="none" xmlns="http://www.w3.org/2000/svg">
<g clip-path="url(#clip0_125_3100)">
<path d="M62 0H0V62H62V0Z" fill="black"/>
<path d="M30.5 9H23.75V11.25H30.5V9Z" fill="#06FC99"/>
<path d="M10.25 31.5V24.75H8V31.5H10.25Z" fill="#06FC99"/>
<path d="M12.5 24.75V20.25H10.25V24.75H12.5Z" fill="#06FC99"/>
<path d="M19.25 13.5H23.75V11.25H19.25V13.5Z" fill="#06FC99"/>
<path d="M14.75 15.75H19.25V13.5H14.75V15.75Z" fill="#06FC99"/>
<path d="M12.5 20.25H14.75V15.75H12.5V20.25Z" fill="#06FC99"/>
<path d="M53 31.5V24.75H50.75V31.5H53Z" fill="#06FC99"/>
<path d="M30.5 11.25H37.25V9H30.5V11.25Z" fill="#06FC99"/>
<path d="M37.25 13.5H41.75V11.25H37.25V13.5Z" fill="#06FC99"/>
<path d="M48.5 20.25V24.75H50.75V20.25H48.5Z" fill="#06FC99"/>
<path d="M46.25 15.75V20.25H48.5V15.75H46.25Z" fill="#06FC99"/>
<path d="M41.75 13.5V15.75H46.25V13.5H41.75Z" fill="#06FC99"/>
<path d="M30.5 54H37.25V51.75H30.5V54Z" fill="#06FC99"/>
<path d="M50.75 31.5V38.25H53V31.5H50.75Z" fill="#06FC99"/>
<path d="M48.5 38.25V42.75H50.75V38.25H48.5Z" fill="#06FC99"/>
<path d="M41.75 49.5H37.25V51.75H41.75V49.5Z" fill="#06FC99"/>
<path d="M46.25 47.25H41.75V49.5H46.25V47.25Z" fill="#06FC99"/>
<path d="M48.5 42.75H46.25V47.25H48.5V42.75Z" fill="#06FC99"/>
<path d="M8 31.5V38.25H10.25V31.5H8Z" fill="#06FC99"/>
<path d="M30.5 51.75H23.75V54H30.5V51.75Z" fill="#06FC99"/>
<path d="M23.75 49.5H19.25V51.75H23.75V49.5Z" fill="#06FC99"/>
<path d="M12.5 42.75V38.25H10.25V42.75H12.5Z" fill="#06FC99"/>
<path d="M14.75 47.25V42.75H12.5V47.25H14.75Z" fill="#06FC99"/>
<path d="M19.25 49.5V47.25H14.75V49.5H19.25Z" fill="#06FC99"/>
<path d="M21.0488 31.0503H18.7988V33.3003H21.0488V31.0503Z" fill="#06FC99"/>
<path d="M21.0488 33.3003H18.7988V35.5503H21.0488V33.3003Z" fill="#06FC99"/>
<path d="M23.2988 33.3003H21.0488V35.5503H23.2988V33.3003Z" fill="#06FC99"/>
<path d="M23.2988 35.5503H21.0488V37.8003H23.2988V35.5503Z" fill="#06FC99"/>
<path d="M25.5488 35.5503H23.2988V37.8003H25.5488V35.5503Z" fill="#06FC99"/>
<path d="M25.5488 37.8003H23.2988V40.0503H25.5488V37.8003Z" fill="#06FC99"/>
<path d="M27.7988 37.8003H25.5488V40.0503H27.7988V37.8003Z" fill="#06FC99"/>
<path d="M27.7988 40.0503H25.5488V42.3003H27.7988V40.0503Z" fill="#06FC99"/>
<path d="M30.0488 35.5503H27.7988V37.8003H30.0488V35.5503Z" fill="#06FC99"/>
<path d="M30.0488 37.8003H27.7988V40.0503H30.0488V37.8003Z" fill="#06FC99"/>
<path d="M32.2988 33.3003H30.0488V35.5503H32.2988V33.3003Z" fill="#06FC99"/>
<path d="M32.2988 35.5503H30.0488V37.8003H32.2988V35.5503Z" fill="#06FC99"/>
<path d="M34.5488 31.0503H32.2988V33.3003H34.5488V31.0503Z" fill="#06FC99"/>
<path d="M34.5488 33.3003H32.2988V35.5503H34.5488V33.3003Z" fill="#06FC99"/>
<path d="M36.7988 28.8003H34.5488V31.0503H36.7988V28.8003Z" fill="#06FC99"/>
<path d="M36.7988 31.0503H34.5488V33.3003H36.7988V31.0503Z" fill="#06FC99"/>
<path d="M39.0488 26.5503H36.7988V28.8003H39.0488V26.5503Z" fill="#06FC99"/>
<path d="M39.0488 28.8003H36.7988V31.0503H39.0488V28.8003Z" fill="#06FC99"/>
<path d="M41.2988 24.3003H39.0488V26.5503H41.2988V24.3003Z" fill="#06FC99"/>
<path d="M41.2988 26.5503H39.0488V28.8003H41.2988V26.5503Z" fill="#06FC99"/>
<path d="M43.5488 22.0503H41.2988V24.3003H43.5488V22.0503Z" fill="#06FC99"/>
<path d="M43.5488 24.3003H41.2988V26.5503H43.5488V24.3003Z" fill="#06FC99"/>
</g>
<defs>
<clipPath id="clip0_125_3100">
<rect width="62" height="62" fill="white"/>
</clipPath>
</defs>
</svg>
