<svg width="42" height="42" viewBox="0 0 42 42" fill="none" xmlns="http://www.w3.org/2000/svg">
<rect x="0.5" y="0.5" width="41" height="41" rx="3.5" stroke="#06FC99"/>
<path d="M23.8237 20.4904C22.9565 20.4904 22.2585 21.1962 22.2585 22.0786C22.2585 22.9413 22.9565 23.6471 23.8237 23.6471C24.7121 23.6471 25.4101 22.9413 25.4101 22.0786C25.4101 21.1962 24.7121 20.4904 23.8237 20.4904V20.4904ZM18.2186 20.4904C17.3514 20.4904 16.6322 21.1962 16.6322 22.0786C16.6322 22.9413 17.3514 23.6471 18.2186 23.6471C19.0858 23.6471 19.7838 22.9413 19.7838 22.0786C19.7838 21.1962 19.0858 20.4904 18.2186 20.4904V20.4904ZM25.3043 27C25.3043 27 24.7544 26.3726 24.2891 25.8432C26.3196 25.3138 27.0811 24.1373 27.0811 24.1373C26.4465 24.5295 25.8331 24.804 25.3043 24.9804C24.5217 25.2746 23.7814 25.4902 23.0623 25.6079C21.5817 25.8628 20.228 25.804 19.0646 25.6079C18.1763 25.451 17.4148 25.2157 16.8014 24.9804C16.4418 24.8628 16.0611 24.7059 15.6592 24.4903C15.6169 24.4706 15.5746 24.451 15.5323 24.4118C15.49 24.4118 15.4689 24.3922 15.4477 24.3922C15.1727 24.2354 15.0247 24.1373 15.0247 24.1373C15.0247 24.1373 15.765 25.2746 17.7321 25.8236C17.2667 26.3726 16.6957 27 16.6957 27C13.2902 26.902 12 24.8236 12 24.8236C12 20.2159 14.2209 16.4905 14.2209 16.4905C16.4418 14.9415 18.5358 15.0003 18.5358 15.0003L18.7051 15.1572C15.913 15.9022 14.6439 17.0395 14.6439 17.0395C14.6439 17.0395 14.9824 16.863 15.5746 16.6277C17.2244 15.9611 18.5147 15.7846 19.0646 15.7258C19.1492 15.7258 19.2338 15.7062 19.3184 15.6866C20.2703 15.5885 21.3278 15.5493 22.4489 15.6669C23.9083 15.8238 25.4736 16.2356 27.0811 17.0395C27.0811 17.0395 25.8754 15.9611 23.2526 15.216L23.4642 15.0003C23.4642 15.0003 25.5582 14.9415 27.7791 16.4905C27.7791 16.4905 30 20.2159 30 24.8236C30 24.8236 28.7098 26.902 25.3043 27Z" fill="#06FC99"/>
</svg>
