<svg width="82" height="82" viewBox="0 0 82 82" fill="none" xmlns="http://www.w3.org/2000/svg">
<circle cx="41" cy="41" r="39.5" fill="black" stroke="#06FC99" stroke-width="3"/>
<path d="M38.189 49.035V41.028C41.113 40.892 43.408 40.263 45.074 39.141C46.74 37.985 47.573 36.251 47.573 33.939V33.225C47.573 31.321 46.995 29.893 45.839 28.941C44.717 27.989 43.17 27.513 41.198 27.513C39.158 27.513 37.526 28.074 36.302 29.196C35.078 30.318 34.228 31.746 33.752 33.48L29.927 32.052C30.267 30.93 30.743 29.876 31.355 28.89C31.967 27.87 32.732 26.986 33.65 26.238C34.602 25.49 35.707 24.895 36.965 24.453C38.257 24.011 39.719 23.79 41.351 23.79C42.983 23.79 44.445 24.028 45.737 24.504C47.063 24.946 48.185 25.592 49.103 26.442C50.021 27.258 50.735 28.261 51.245 29.451C51.755 30.641 52.01 31.967 52.01 33.429C52.01 35.027 51.721 36.438 51.143 37.662C50.565 38.852 49.817 39.872 48.899 40.722C47.981 41.572 46.927 42.269 45.737 42.813C44.581 43.323 43.408 43.68 42.218 43.884V49.035H38.189ZM40.382 60.459C38.988 60.459 38.002 60.17 37.424 59.592C36.88 59.014 36.608 58.283 36.608 57.399V56.481C36.608 55.597 36.88 54.866 37.424 54.288C38.002 53.71 38.988 53.421 40.382 53.421C41.776 53.421 42.745 53.71 43.289 54.288C43.867 54.866 44.156 55.597 44.156 56.481V57.399C44.156 58.283 43.867 59.014 43.289 59.592C42.745 60.17 41.776 60.459 40.382 60.459Z" fill="#06FC99"/>
</svg>
