<svg width="42" height="42" viewBox="0 0 42 42" fill="none" xmlns="http://www.w3.org/2000/svg">
<rect x="0.5" y="0.5" width="41" height="41" rx="3.5" stroke="#06FC99"/>
<path d="M18.9788 23.1502C18.9788 23.9122 18.57 25.159 17.6025 25.159C16.635 25.159 16.2263 23.9122 16.2263 23.1502C16.2263 22.3883 16.635 21.1414 17.6025 21.1414C18.57 21.1414 18.9788 22.3883 18.9788 23.1502V23.1502ZM30 21.3091C30 22.4721 29.88 23.7044 29.3438 24.7726C27.9225 27.5652 24.015 27.4996 21.2175 27.4996C18.375 27.4996 14.235 27.598 12.7575 24.7726C12.21 23.7153 12 22.4721 12 21.3091C12 19.7816 12.5213 18.3379 13.5563 17.1676C13.3613 16.5916 13.2675 15.9864 13.2675 15.3885C13.2675 14.6047 13.4513 14.2109 13.815 13.5C15.5138 13.5 16.6013 13.8281 17.895 14.8125C18.9825 14.5609 20.1 14.4479 21.2213 14.4479C22.2338 14.4479 23.2537 14.5536 24.2363 14.7833C25.5113 13.8099 26.5988 13.5 28.2788 13.5C28.6463 14.2109 28.8263 14.6047 28.8263 15.3885C28.8263 15.9864 28.7288 16.5806 28.5375 17.1457C29.5688 18.3269 30 19.7816 30 21.3091V21.3091ZM27.5888 23.1502C27.5888 21.5498 26.5875 20.1389 24.8325 20.1389C24.1238 20.1389 23.445 20.2628 22.7325 20.3576C22.1738 20.4415 21.615 20.4743 21.0413 20.4743C20.4713 20.4743 19.9125 20.4415 19.35 20.3576C18.6488 20.2628 17.9625 20.1389 17.25 20.1389C15.495 20.1389 14.4938 21.5498 14.4938 23.1502C14.4938 26.3512 17.5087 26.8434 20.1338 26.8434H21.9413C24.5775 26.8434 27.5888 26.3548 27.5888 23.1502V23.1502ZM24.4913 21.1414C23.5238 21.1414 23.115 22.3883 23.115 23.1502C23.115 23.9122 23.5238 25.159 24.4913 25.159C25.4588 25.159 25.8675 23.9122 25.8675 23.1502C25.8675 22.3883 25.4588 21.1414 24.4913 21.1414Z" fill="#06FC99"/>
</svg>
