<svg width="164" height="164" viewBox="0 0 164 164" fill="none" xmlns="http://www.w3.org/2000/svg">
<path d="M164 82C164 127.287 127.287 164 82 164C36.7127 164 0 127.287 0 82C0 36.7127 36.7127 0 82 0C127.287 0 164 36.7127 164 82ZM13.8087 82C13.8087 119.661 44.339 150.191 82 150.191C119.661 150.191 150.191 119.661 150.191 82C150.191 44.339 119.661 13.8087 82 13.8087C44.339 13.8087 13.8087 44.339 13.8087 82Z" fill="#302D2D"/>
<path d="M164 82C164 66.8295 159.792 51.9565 151.843 39.0352C143.894 26.1139 132.517 15.6509 118.976 8.81009C105.436 1.96929 90.2628 -0.981133 75.1455 0.286994C60.0281 1.55512 45.5589 6.99209 33.3472 15.9931C21.1356 24.9941 11.6603 37.2064 5.97534 51.2713C0.290365 65.3363 -1.38141 80.7027 1.14597 95.6611C3.67335 110.62 10.3008 124.584 20.2911 136C30.2814 147.417 43.243 155.838 57.7339 160.327L61.8015 147.198C49.7396 143.461 38.9508 136.451 30.6351 126.948C22.3194 117.446 16.8029 105.822 14.6992 93.3712C12.5954 80.9201 13.987 68.1296 18.719 56.4222C23.451 44.7149 31.338 34.5498 41.5027 27.0575C51.6673 19.5653 63.7112 15.0397 76.2945 13.9842C88.8778 12.9286 101.507 15.3845 112.778 21.0786C124.049 26.7727 133.519 35.4818 140.135 46.2372C146.752 56.9925 150.255 69.3725 150.255 82H164Z" fill="#06FC99"/>
</svg>
