<svg width="16" height="16" viewBox="0 0 16 16" fill="none" xmlns="http://www.w3.org/2000/svg">
<path d="M4.70653 6.63636H4.65163C4.19041 6.63636 3.9598 6.63636 3.78364 6.72554C3.62868 6.80398 3.5027 6.92915 3.42374 7.0831C3.33398 7.25812 3.33398 7.48723 3.33398 7.94545V12.6909C3.33398 13.1491 3.33398 13.3782 3.42374 13.5533C3.5027 13.7072 3.62868 13.8324 3.78364 13.9108C3.9598 14 4.19041 14 4.65163 14H11.3497C11.8109 14 12.0415 14 12.2177 13.9108C12.3726 13.8324 12.4986 13.7072 12.5776 13.5533C12.6673 13.3782 12.6673 13.1491 12.6673 12.6909V7.94545C12.6673 7.48723 12.6673 7.25812 12.5776 7.0831C12.4986 6.92915 12.3726 6.80398 12.2177 6.72554C12.0415 6.63636 11.8109 6.63636 11.3497 6.63636H11.2948M4.70653 6.63636V5.27273C4.70653 3.46525 6.18136 2 8.00065 2C9.81994 2 11.2948 3.46525 11.2948 5.27273V6.63636M4.70653 6.63636H11.2948" stroke="#EF4444" stroke-width="1.16667"/>
<ellipse cx="8.00136" cy="10.4547" rx="1.09804" ry="1.09091" fill="#EF4444"/>
</svg>
