<svg width="117" height="41" viewBox="0 0 117 41" fill="none" xmlns="http://www.w3.org/2000/svg">
<g filter="url(#filter0_d_950_10533)">
<path d="M50.6505 21.248C49.7111 21.248 48.8672 21.0964 48.1189 20.7931C47.3705 20.4898 46.7336 20.0588 46.2082 19.5002C45.6987 18.9415 45.3006 18.2631 45.014 17.4649C44.7434 16.6668 44.608 15.7729 44.608 14.7833C44.608 13.7936 44.7434 12.8997 45.014 12.1016C45.3006 11.3034 45.6987 10.625 46.2082 10.0664C46.7336 9.50767 47.3626 9.07669 48.095 8.7734C48.8433 8.47011 49.6872 8.31847 50.6266 8.31847C51.9322 8.31847 52.9831 8.58983 53.7792 9.13255C54.5753 9.67528 55.1804 10.3936 55.5944 11.2875L53.2299 12.5804C53.007 12.0537 52.6885 11.6307 52.2746 11.3114C51.8765 10.9762 51.3272 10.8086 50.6266 10.8086C49.7191 10.8086 49.0185 11.072 48.5249 11.5988C48.0472 12.1255 47.8084 12.8438 47.8084 13.7537V15.8128C47.8084 16.7067 48.0472 17.425 48.5249 17.9678C49.0185 18.4945 49.735 18.7579 50.6744 18.7579C51.4068 18.7579 51.988 18.5903 52.4179 18.2551C52.8637 17.9199 53.2219 17.4729 53.4926 16.9142L55.7854 18.279C55.3714 19.157 54.7425 19.8753 53.8986 20.434C53.0707 20.9767 51.988 21.248 50.6505 21.248Z" fill="#06FC99"/>
<path d="M68.3148 20.9607C67.5665 20.9607 66.9853 20.7772 66.5713 20.41C66.1733 20.0269 65.9345 19.5002 65.8548 18.8297H65.7354C65.5125 19.5959 65.0747 20.1945 64.4218 20.6255C63.769 21.0405 62.965 21.248 62.0096 21.248C60.7677 21.248 59.7805 20.9208 59.0481 20.2664C58.3157 19.6119 57.9495 18.702 57.9495 17.5368C57.9495 15.0466 59.7726 13.8016 63.4187 13.8016H65.5921V12.9875C65.5921 12.2053 65.4011 11.6147 65.0189 11.2157C64.6368 10.8166 64.0158 10.6171 63.156 10.6171C62.3758 10.6171 61.7469 10.7687 61.2692 11.072C60.7916 11.3753 60.3856 11.7664 60.0512 12.2452L58.3077 10.7607C58.6898 10.0743 59.3029 9.49969 60.1467 9.03678C61.0065 8.55791 62.1131 8.31847 63.4665 8.31847C65.0906 8.31847 66.3564 8.70157 67.264 9.46777C68.1874 10.218 68.6492 11.3434 68.6492 12.8438V18.6621H70.1061V20.9607H68.3148ZM63.0366 19.141C63.769 19.141 64.3741 18.9734 64.8517 18.6382C65.3453 18.287 65.5921 17.8161 65.5921 17.2255V15.5734H63.4904C61.8186 15.5734 60.9826 16.1002 60.9826 17.1537V17.6326C60.9826 18.1274 61.1658 18.5025 61.532 18.7579C61.8982 19.0133 62.3997 19.141 63.0366 19.141Z" fill="#06FC99"/>
<path d="M72.0074 20.9607V8.60579H75.0645V10.7847H75.1839C75.4546 10.1142 75.8685 9.5396 76.4258 9.06072C76.999 8.56589 77.7872 8.31847 78.7903 8.31847C80.0003 8.31847 80.9796 8.72551 81.7279 9.5396C82.4922 10.3377 82.8743 11.487 82.8743 12.9875V20.9607H79.8172V13.4185C79.8172 11.6307 79.045 10.7368 77.5006 10.7368C77.1821 10.7368 76.8796 10.7767 76.593 10.8565C76.3064 10.9363 76.0437 11.064 75.8048 11.2396C75.5819 11.3992 75.3988 11.5988 75.2555 11.8382C75.1282 12.0776 75.0645 12.3649 75.0645 12.7002V20.9607H72.0074Z" fill="#06FC99"/>
<path d="M91.8212 20.9607C90.643 20.9607 89.7752 20.6495 89.2179 20.0269C88.6607 19.4044 88.382 18.5983 88.382 17.6086V11.0241H84.7995V8.60579H87.2356C87.7292 8.60579 88.0795 8.51002 88.2865 8.31847C88.4935 8.11096 88.597 7.7518 88.597 7.241V4.24805H91.4391V8.60579H96.4546V11.0241H91.4391V18.5424H96.4546V20.9607H91.8212Z" fill="#06FC99"/>
<path d="M104.589 21.248C103.65 21.248 102.806 21.0964 102.058 20.7931C101.325 20.4898 100.696 20.0588 100.171 19.5002C99.6615 18.9415 99.2635 18.2631 98.9769 17.4649C98.7062 16.6668 98.5709 15.7729 98.5709 14.7833C98.5709 13.7936 98.7062 12.8997 98.9769 12.1016C99.2635 11.3034 99.6615 10.625 100.171 10.0664C100.696 9.50767 101.325 9.07669 102.058 8.7734C102.806 8.47011 103.65 8.31847 104.589 8.31847C105.513 8.31847 106.349 8.47011 107.097 8.7734C107.846 9.07669 108.474 9.50767 108.984 10.0664C109.509 10.625 109.907 11.3034 110.178 12.1016C110.465 12.8997 110.608 13.7936 110.608 14.7833C110.608 15.7729 110.465 16.6668 110.178 17.4649C109.907 18.2631 109.509 18.9415 108.984 19.5002C108.474 20.0588 107.846 20.4898 107.097 20.7931C106.349 21.0964 105.513 21.248 104.589 21.248ZM104.589 18.9016C105.465 18.9016 106.158 18.6382 106.667 18.1114C107.177 17.5687 107.432 16.7786 107.432 15.741V13.8255C107.432 12.788 107.177 12.0058 106.667 11.479C106.158 10.9363 105.465 10.6649 104.589 10.6649C103.714 10.6649 103.021 10.9363 102.512 11.479C102.002 12.0058 101.747 12.788 101.747 13.8255V15.741C101.747 16.7786 102.002 17.5687 102.512 18.1114C103.021 18.6382 103.714 18.9016 104.589 18.9016Z" fill="#06FC99"/>
</g>
<g filter="url(#filter1_d_950_10533)">
<path fill-rule="evenodd" clip-rule="evenodd" d="M10.6552 0V5H6V24H10.6552V29H33V0H10.6552ZM28 5H16V10H11V19H16V24H28V19H16V10H28V5Z" fill="#06FC99"/>
</g>
<defs>
<filter id="filter0_d_950_10533" x="38.608" y="4.24805" width="78" height="29" filterUnits="userSpaceOnUse" color-interpolation-filters="sRGB">
<feFlood flood-opacity="0" result="BackgroundImageFix"/>
<feColorMatrix in="SourceAlpha" type="matrix" values="0 0 0 0 0 0 0 0 0 0 0 0 0 0 0 0 0 0 127 0" result="hardAlpha"/>
<feOffset dy="6"/>
<feGaussianBlur stdDeviation="3"/>
<feComposite in2="hardAlpha" operator="out"/>
<feColorMatrix type="matrix" values="0 0 0 0 0.0235294 0 0 0 0 0.988235 0 0 0 0 0.6 0 0 0 0.2 0"/>
<feBlend mode="normal" in2="BackgroundImageFix" result="effect1_dropShadow_950_10533"/>
<feBlend mode="normal" in="SourceGraphic" in2="effect1_dropShadow_950_10533" result="shape"/>
</filter>
<filter id="filter1_d_950_10533" x="0" y="0" width="39" height="41" filterUnits="userSpaceOnUse" color-interpolation-filters="sRGB">
<feFlood flood-opacity="0" result="BackgroundImageFix"/>
<feColorMatrix in="SourceAlpha" type="matrix" values="0 0 0 0 0 0 0 0 0 0 0 0 0 0 0 0 0 0 127 0" result="hardAlpha"/>
<feOffset dy="6"/>
<feGaussianBlur stdDeviation="3"/>
<feComposite in2="hardAlpha" operator="out"/>
<feColorMatrix type="matrix" values="0 0 0 0 0.0235294 0 0 0 0 0.988235 0 0 0 0 0.6 0 0 0 0.2 0"/>
<feBlend mode="normal" in2="BackgroundImageFix" result="effect1_dropShadow_950_10533"/>
<feBlend mode="normal" in="SourceGraphic" in2="effect1_dropShadow_950_10533" result="shape"/>
</filter>
</defs>
</svg>
