<svg width="105" height="29" viewBox="0 0 105 29" fill="none" xmlns="http://www.w3.org/2000/svg">
<g clip-path="url(#clip0_203_4195)">
<g filter="url(#filter0_i_203_4195)">
<path d="M44.6505 22.9998C43.7111 22.9998 42.8672 22.8482 42.1189 22.5449C41.3705 22.2416 40.7336 21.8106 40.2082 21.252C39.6987 20.6933 39.3006 20.0149 39.014 19.2167C38.7434 18.4186 38.608 17.5247 38.608 16.5351C38.608 15.5454 38.7434 14.6515 39.014 13.8534C39.3006 13.0552 39.6987 12.3768 40.2082 11.8182C40.7336 11.2595 41.3626 10.8285 42.095 10.5252C42.8433 10.222 43.6872 10.0703 44.6266 10.0703C45.9322 10.0703 46.9831 10.3417 47.7792 10.8844C48.5753 11.4271 49.1804 12.1454 49.5944 13.0393L47.2299 14.3322C47.007 13.8055 46.6885 13.3825 46.2746 13.0632C45.8765 12.728 45.3272 12.5604 44.6266 12.5604C43.7191 12.5604 43.0185 12.8238 42.5249 13.3506C42.0472 13.8773 41.8084 14.5956 41.8084 15.5055V17.5646C41.8084 18.4585 42.0472 19.1768 42.5249 19.7196C43.0185 20.2463 43.735 20.5097 44.6744 20.5097C45.4068 20.5097 45.988 20.3421 46.4179 20.0069C46.8637 19.6717 47.2219 19.2247 47.4926 18.666L49.7854 20.0308C49.3714 20.9088 48.7425 21.6271 47.8986 22.1858C47.0707 22.7285 45.988 22.9998 44.6505 22.9998Z" fill="#06FC99"/>
<path d="M62.3149 22.7125C61.5666 22.7125 60.9854 22.529 60.5714 22.1618C60.1734 21.7787 59.9346 21.252 59.8549 20.5815H59.7355C59.5126 21.3477 59.0748 21.9463 58.4219 22.3773C57.7691 22.7923 56.9651 22.9998 56.0097 22.9998C54.7678 22.9998 53.7806 22.6726 53.0482 22.0182C52.3158 21.3637 51.9496 20.4538 51.9496 19.2886C51.9496 16.7984 53.7727 15.5534 57.4188 15.5534H59.5922V14.7393C59.5922 13.9571 59.4012 13.3665 59.019 12.9675C58.6369 12.5684 58.0159 12.3689 57.1561 12.3689C56.3759 12.3689 55.747 12.5205 55.2693 12.8238C54.7917 13.1271 54.3857 13.5182 54.0513 13.997L52.3078 12.5125C52.6899 11.8261 53.303 11.2515 54.1468 10.7886C55.0066 10.3098 56.1132 10.0703 57.4666 10.0703C59.0907 10.0703 60.3565 10.4534 61.2641 11.2196C62.1875 11.9698 62.6493 13.0952 62.6493 14.5956V20.4139H64.1062V22.7125H62.3149ZM57.0367 20.8928C57.7691 20.8928 58.3742 20.7252 58.8518 20.39C59.3454 20.0388 59.5922 19.5679 59.5922 18.9773V17.3252H57.4905C55.8187 17.3252 54.9827 17.852 54.9827 18.9055V19.3844C54.9827 19.8792 55.1659 20.2543 55.5321 20.5097C55.8983 20.7651 56.3998 20.8928 57.0367 20.8928Z" fill="#06FC99"/>
<path d="M66.0074 22.7125V10.3576H69.0645V12.5365H69.1839C69.4546 11.866 69.8685 11.2914 70.4258 10.8126C70.999 10.3177 71.7872 10.0703 72.7903 10.0703C74.0003 10.0703 74.9796 10.4774 75.7279 11.2914C76.4922 12.0895 76.8743 13.2388 76.8743 14.7393V22.7125H73.8172V15.1703C73.8172 13.3825 73.045 12.4886 71.5006 12.4886C71.1821 12.4886 70.8796 12.5285 70.593 12.6083C70.3064 12.6881 70.0437 12.8158 69.8048 12.9914C69.5819 13.151 69.3988 13.3506 69.2555 13.59C69.1282 13.8294 69.0645 14.1167 69.0645 14.452V22.7125H66.0074Z" fill="#06FC99"/>
<path d="M85.8213 22.7126C84.6431 22.7126 83.7753 22.4014 83.218 21.7788C82.6608 21.1563 82.3821 20.3502 82.3821 19.3605V12.7761H78.7996V10.3577H81.2357C81.7293 10.3577 82.0796 10.262 82.2866 10.0704C82.4936 9.86291 82.5971 9.50375 82.5971 8.99295V6H85.4392V10.3577H90.4547V12.7761H85.4392V20.2943H90.4547V22.7126H85.8213Z" fill="#06FC99"/>
<path d="M98.589 22.9998C97.65 22.9998 96.806 22.8482 96.058 22.5449C95.325 22.2416 94.696 21.8106 94.171 21.252C93.6615 20.6933 93.2635 20.0149 92.9769 19.2167C92.7062 18.4186 92.5709 17.5247 92.5709 16.5351C92.5709 15.5454 92.7062 14.6515 92.9769 13.8534C93.2635 13.0552 93.6615 12.3768 94.171 11.8182C94.696 11.2595 95.325 10.8285 96.058 10.5252C96.806 10.222 97.65 10.0703 98.589 10.0703C99.513 10.0703 100.349 10.222 101.097 10.5252C101.846 10.8285 102.474 11.2595 102.984 11.8182C103.509 12.3768 103.907 13.0552 104.178 13.8534C104.465 14.6515 104.608 15.5454 104.608 16.5351C104.608 17.5247 104.465 18.4186 104.178 19.2167C103.907 20.0149 103.509 20.6933 102.984 21.252C102.474 21.8106 101.846 22.2416 101.097 22.5449C100.349 22.8482 99.513 22.9998 98.589 22.9998ZM98.589 20.6534C99.465 20.6534 100.158 20.39 100.667 19.8632C101.177 19.3205 101.432 18.5304 101.432 17.4928V15.5773C101.432 14.5398 101.177 13.7576 100.667 13.2308C100.158 12.6881 99.465 12.4167 98.589 12.4167C97.714 12.4167 97.021 12.6881 96.512 13.2308C96.002 13.7576 95.747 14.5398 95.747 15.5773V17.4928C95.747 18.5304 96.002 19.3205 96.512 19.8632C97.021 20.39 97.714 20.6534 98.589 20.6534Z" fill="#06FC99"/>
</g>
<g filter="url(#filter1_i_203_4195)">
<path fill-rule="evenodd" clip-rule="evenodd" d="M4.6552 0V5H0V24H4.6552V29H27V0H4.6552ZM22 5H10V10H5V19H10V24H22V19H10V10H22V5Z" fill="#06FC99"/>
</g>
</g>
<defs>
<filter id="filter0_i_203_4195" x="38.608" y="6" width="66" height="23" filterUnits="userSpaceOnUse" color-interpolation-filters="sRGB">
<feFlood flood-opacity="0" result="BackgroundImageFix"/>
<feBlend mode="normal" in="SourceGraphic" in2="BackgroundImageFix" result="shape"/>
<feColorMatrix in="SourceAlpha" type="matrix" values="0 0 0 0 0 0 0 0 0 0 0 0 0 0 0 0 0 0 127 0" result="hardAlpha"/>
<feOffset dy="6"/>
<feGaussianBlur stdDeviation="3"/>
<feComposite in2="hardAlpha" operator="arithmetic" k2="-1" k3="1"/>
<feColorMatrix type="matrix" values="0 0 0 0 0.0235294 0 0 0 0 0.988235 0 0 0 0 0.6 0 0 0 0.2 0"/>
<feBlend mode="normal" in2="shape" result="effect1_innerShadow_203_4195"/>
</filter>
<filter id="filter1_i_203_4195" x="0" y="0" width="27" height="35" filterUnits="userSpaceOnUse" color-interpolation-filters="sRGB">
<feFlood flood-opacity="0" result="BackgroundImageFix"/>
<feBlend mode="normal" in="SourceGraphic" in2="BackgroundImageFix" result="shape"/>
<feColorMatrix in="SourceAlpha" type="matrix" values="0 0 0 0 0 0 0 0 0 0 0 0 0 0 0 0 0 0 127 0" result="hardAlpha"/>
<feOffset dy="6"/>
<feGaussianBlur stdDeviation="3"/>
<feComposite in2="hardAlpha" operator="arithmetic" k2="-1" k3="1"/>
<feColorMatrix type="matrix" values="0 0 0 0 0.0235294 0 0 0 0 0.988235 0 0 0 0 0.6 0 0 0 0.2 0"/>
<feBlend mode="normal" in2="shape" result="effect1_innerShadow_203_4195"/>
</filter>
<clipPath id="clip0_203_4195">
<rect width="105" height="29" fill="white"/>
</clipPath>
</defs>
</svg>
