<?xml version="1.0" encoding="UTF-8" standalone="no"?>
<!-- Created with Inkscape (http://www.inkscape.org/) -->

<svg
   xmlns:dc="http://purl.org/dc/elements/1.1/"
   xmlns:cc="http://creativecommons.org/ns#"
   xmlns:rdf="http://www.w3.org/1999/02/22-rdf-syntax-ns#"
   xmlns:svg="http://www.w3.org/2000/svg"
   xmlns="http://www.w3.org/2000/svg"
   xmlns:sodipodi="http://sodipodi.sourceforge.net/DTD/sodipodi-0.dtd"
   xmlns:inkscape="http://www.inkscape.org/namespaces/inkscape"
   width="16.482828mm"
   height="14.68959mm"
   viewBox="0 0 16.482828 14.68959"
   version="1.1"
   id="svg8634"
   inkscape:version="0.92.1 r15371"
   sodipodi:docname="password reset.svg">
  <defs
     id="defs8628" />
  <sodipodi:namedview
     id="base"
     pagecolor="#ffffff"
     bordercolor="#666666"
     borderopacity="1.0"
     inkscape:pageopacity="0.0"
     inkscape:pageshadow="2"
     inkscape:zoom="5.6568543"
     inkscape:cx="-3.8835724"
     inkscape:cy="1.3449005"
     inkscape:document-units="mm"
     inkscape:current-layer="layer1"
     showgrid="false"
     fit-margin-top="0"
     fit-margin-left="0"
     fit-margin-right="0"
     fit-margin-bottom="0"
     inkscape:window-width="1920"
     inkscape:window-height="1017"
     inkscape:window-x="-8"
     inkscape:window-y="-8"
     inkscape:window-maximized="1" />
  <metadata
     id="metadata8631">
    <rdf:RDF>
      <cc:Work
         rdf:about="">
        <dc:format>image/svg+xml</dc:format>
        <dc:type
           rdf:resource="http://purl.org/dc/dcmitype/StillImage" />
        <dc:title></dc:title>
      </cc:Work>
    </rdf:RDF>
  </metadata>
  <g
     inkscape:label="Layer 1"
     inkscape:groupmode="layer"
     id="layer1"
     transform="translate(-3.0978698,-4.6612284)">
    <g
       transform="matrix(1.2809155,0,0,1.2374188,103.99112,-1219.3652)"
       id="g4667">
      <path
         inkscape:connector-curvature="0"
         id="path4640"
         d="m -72.695687,1000.9938 c -1.972631,-0.2257 -3.790181,-1.49518 -4.687846,-3.27432 -0.175341,-0.34752 -0.468403,-1.12381 -0.468403,-1.24073 0,-0.0266 0.375731,-0.048 0.834956,-0.0476 l 0.834965,7.2e-4 0.163557,0.4041 c 0.519646,1.28389 1.615359,2.24396 2.994703,2.62398 0.49589,0.13662 1.63139,0.13421 2.144474,-0.005 0.522244,-0.14124 1.250991,-0.50448 1.653619,-0.82424 0.687488,-0.546 1.31115,-1.49718 1.539,-2.34722 0.146128,-0.54518 0.177544,-1.43846 0.07041,-2.00269 -0.178809,-0.94189 -0.54809,-1.63735 -1.241568,-2.33827 -0.844669,-0.85372 -1.728666,-1.24944 -2.900391,-1.29837 -0.550547,-0.023 -0.767325,-0.006 -1.18485,0.0941 -1.415428,0.33867 -2.632012,1.39775 -3.122259,2.71804 l -0.103341,0.27832 h -0.842765 -0.842766 l 0.03834,-0.16113 c 0.08466,-0.35604 0.444253,-1.16597 0.699534,-1.57555 0.354919,-0.56944 1.084444,-1.33426 1.637166,-1.71635 3.344531,-2.31207 7.975171,-0.83571 9.268415,2.95499 1.2168,3.56666 -1.256634,7.33132 -5.098284,7.75962 -0.62535,0.07 -0.754641,0.069 -1.386656,0 z"
         style="fill:#000000;fill-opacity:1;fill-rule:evenodd;stroke:none;stroke-width:0.05859375;stroke-opacity:1" />
      <g
         id="g4592-5-0"
         transform="matrix(0.77578717,0,0,0.61178065,-35.477186,373.83106)">
        <rect
           style="fill:#000000;fill-opacity:1;fill-rule:evenodd;stroke:none;stroke-width:2.04824853"
           id="rect3717-9-8-2"
           width="4.4458065"
           height="1.1666708"
           x="-55.705212"
           y="1017.3687" />
        <path
           sodipodi:type="star"
           style="fill:#000000;fill-opacity:1;fill-rule:evenodd;stroke-width:0.93749994"
           id="path3783-0-6"
           sodipodi:sides="3"
           sodipodi:cx="-109.71203"
           sodipodi:cy="1025.7628"
           sodipodi:r1="8.7855453"
           sodipodi:r2="6.0797644"
           sodipodi:arg1="0.43833656"
           sodipodi:arg2="1.4855341"
           inkscape:flatsided="true"
           inkscape:rounded="0"
           inkscape:randomized="0"
           d="m -101.75708,1029.4917 -15.16173,1.2959 6.45861,-13.7784 z"
           inkscape:transform-center-x="-0.034756175"
           inkscape:transform-center-y="0.58213244"
           transform="matrix(-0.30321012,-0.03553367,0.03028113,-0.35580483,-117.82847,1375.3296)" />
      </g>
    </g>
    <g
       id="g73"
       transform="matrix(0.83530458,0,0,1,39.090178,0.46999031)">
      <path
         inkscape:connector-curvature="0"
         id="path68"
         d="m -34.487464,10.849979 0.0036,-0.730218 0.02775,-0.1337396 c 0.196159,-0.9452109 0.892942,-1.6292248 1.80383,-1.7707713 0.149269,-0.023195 0.448719,-0.023232 0.597434,-8.14e-5 0.850246,0.1323855 1.532973,0.7494915 1.763181,1.5937089 0.07187,0.2635504 0.07468,0.3040374 0.07468,1.0731994 l 3e-6,0.687422 h -0.324033 -0.324031 v -0.678215 c 0,-0.574261 -0.0024,-0.691927 -0.01605,-0.767667 -0.115574,-0.6441436 -0.601574,-1.1513119 -1.21426,-1.2671477 -0.133279,-0.025199 -0.38006,-0.025995 -0.5063,-0.00165 -0.211637,0.040837 -0.407858,0.1240287 -0.588513,0.2495169 -0.118197,0.082103 -0.323993,0.2988632 -0.400284,0.4216091 -0.103814,0.1670294 -0.170352,0.3247404 -0.218926,0.5189097 l -0.02677,0.106992 -0.0035,0.714169 -0.0035,0.714171 h -0.324083 -0.324083 z"
         style="fill:#000000;fill-opacity:1;fill-rule:evenodd;stroke-width:0.01040864" />
      <rect
         ry="0.44648439"
         y="10.52671"
         x="-34.942802"
         height="3.3545389"
         width="5.1773005"
         id="rect12"
         style="fill:#000000;fill-opacity:1;fill-rule:evenodd;stroke-width:0.25095639" />
      <path
         inkscape:connector-curvature="0"
         id="path39"
         d="m -32.915205,12.470548 c -6.38e-4,-0.291161 -3.71e-4,-0.547149 6.25e-4,-0.568863 0.0065,-0.140261 0.0869,-0.294293 0.198787,-0.380573 0.09138,-0.07046 0.187004,-0.106399 0.298919,-0.112341 0.248028,-0.01317 0.470974,0.149576 0.540122,0.394269 0.01125,0.03982 0.01296,0.108928 0.0153,0.620851 l 0.0026,0.576041 h -0.527593 -0.527593 z"
         style="fill:#ffffff;fill-opacity:1;fill-rule:evenodd;stroke-width:0.00735304" />
    </g>
  </g>
</svg>
