<svg width="100" height="100" viewBox="0 0 100 100" fill="none" xmlns="http://www.w3.org/2000/svg">
<g clip-path="url(#clip0_1305_3269)">
<path d="M0.304044 50.0003C0.304043 77.2371 22.3839 99.3169 49.6207 99.3169C76.8576 99.3169 98.9374 77.2371 98.9374 50.0003C98.9374 22.7634 76.8576 0.683593 49.6207 0.683592C22.3839 0.68359 0.304046 22.7634 0.304044 50.0003Z" fill="#4B4B4B"/>
<path d="M48.4321 77.4091C49.1853 78.1623 50.4066 78.1623 51.16 77.4091L63.435 65.1339C64.1883 64.3807 64.1883 63.1592 63.435 62.4061C62.6818 61.6529 61.4605 61.6529 60.7073 62.4061L49.796 73.3174L38.8848 62.4061C38.1314 61.6529 36.9102 61.6529 36.157 62.4061C35.4038 63.1592 35.4038 64.3807 36.157 65.1339L48.4321 77.4091ZM47.8671 27.1284L47.8671 76.0451L51.7249 76.0451L51.7249 27.1284L47.8671 27.1284Z" fill="white"/>
<path d="M50.8923 23.5602C50.1234 22.8133 48.8767 22.8133 48.1076 23.5602L35.5768 35.7344C34.8077 36.4814 34.8077 37.6928 35.5768 38.4398C36.3457 39.1867 37.5924 39.1867 38.3613 38.4398L49.5001 27.6182L60.6386 38.4398C61.4077 39.1867 62.6545 39.1867 63.4233 38.4398C64.1922 37.6928 64.1922 36.4814 63.4233 35.7344L50.8923 23.5602Z" fill="white"/>
</g>
<defs>
<clipPath id="clip0_1305_3269">
<rect width="100" height="100" fill="white" transform="translate(100) rotate(90)"/>
</clipPath>
</defs>
</svg>
