<svg width="32" height="32" viewBox="0 0 32 32" fill="none" xmlns="http://www.w3.org/2000/svg">
<mask id="path-2-inside-1_1411_7291" fill="white">
<path d="M22.4583 15.9995C22.4583 15.2796 22.7777 14.67 23.3023 14.1832C23.4367 14.0584 23.5039 13.996 23.5245 13.9745C23.8105 13.6755 23.8822 13.3477 23.747 12.9566C23.7373 12.9285 23.7272 12.9041 23.707 12.8552V12.8552C23.6863 12.8051 23.6759 12.7801 23.6645 12.7562C23.4869 12.3836 23.319 12.2592 22.9108 12.1978C22.8846 12.1938 22.7514 12.1809 22.485 12.1552C21.8266 12.0914 21.2585 11.7414 20.7575 11.2398C20.2564 10.7393 20.0021 10.171 19.9941 9.51184C19.9914 9.29641 19.9901 9.1887 19.988 9.15943C19.9589 8.74915 19.7966 8.50944 19.4264 8.33018C19.4 8.3174 19.3769 8.30785 19.3307 8.28875V8.28875C19.2753 8.26581 19.2475 8.25434 19.2198 8.24472C18.8316 8.11024 18.5448 8.16593 18.2352 8.43588C18.2131 8.45519 18.1374 8.52941 17.9861 8.67787C17.4416 9.21202 16.7254 9.538 15.999 9.538C15.2716 9.538 14.5554 9.21167 14.0106 8.67701C13.8599 8.52912 13.7846 8.45517 13.7624 8.43582C13.4532 8.16615 13.1651 8.11024 12.7775 8.24467C12.7497 8.25432 12.7221 8.26573 12.6671 8.28854V8.28854C12.6209 8.30766 12.5978 8.31722 12.5714 8.33003C12.2013 8.50943 12.0392 8.74899 12.0101 9.1592C12.0081 9.18851 12.0068 9.29632 12.0042 9.51194C11.9963 10.1711 11.7421 10.7393 11.2396 11.2398C10.7396 11.7412 10.1719 12.0911 9.51348 12.1551C9.24541 12.1811 9.11137 12.1941 9.08469 12.1982C8.6776 12.26 8.51022 12.3841 8.33265 12.7556C8.32101 12.7799 8.31045 12.8055 8.28933 12.8566V12.8566C8.26941 12.9048 8.25945 12.9289 8.24959 12.9575C8.11565 13.3468 8.18743 13.6752 8.47158 13.9731C8.49248 13.995 8.55976 14.0575 8.69433 14.1825C9.21865 14.6694 9.53791 15.2793 9.53791 15.9995C9.53791 16.7258 9.21202 17.442 8.67802 17.9869C8.52982 18.1381 8.45572 18.2137 8.43676 18.2354C8.16555 18.5461 8.11015 18.8313 8.24537 19.2209C8.25482 19.2482 8.26644 19.2763 8.28969 19.3326V19.3326C8.30844 19.378 8.31781 19.4006 8.33034 19.4266C8.50952 19.7982 8.75043 19.9613 9.16192 19.9898C9.19069 19.9918 9.2975 19.9931 9.51113 19.9955C10.1705 20.0031 10.739 20.2569 11.2396 20.7583C11.7408 21.2602 11.9955 21.8289 12.0038 22.4875C12.0065 22.7021 12.0079 22.8094 12.0099 22.8381C12.0387 23.2495 12.2005 23.4886 12.5718 23.6683C12.5976 23.6808 12.6203 23.6902 12.6656 23.709V23.709C12.7212 23.7321 12.7491 23.7436 12.7763 23.7531C13.1663 23.8892 13.4533 23.8336 13.7642 23.5616C13.7859 23.5426 13.8614 23.4685 14.0125 23.3201C14.557 22.7854 15.2732 22.4601 16 22.4601C16.7261 22.4601 17.4422 22.7859 17.987 23.3205C18.1377 23.4685 18.2131 23.5424 18.2345 23.5612C18.546 23.8338 18.8322 23.8893 19.2229 23.7528C19.2498 23.7434 19.2778 23.7318 19.3337 23.7086V23.7086C19.379 23.6898 19.4017 23.6805 19.4273 23.6681C19.7994 23.4884 19.9617 23.2484 19.9901 22.8362C19.992 22.8078 19.9933 22.7011 19.9958 22.4876C20.0036 21.8289 20.2575 21.2602 20.7594 20.7583C21.2602 20.2581 21.8282 19.9086 22.4865 19.8442C22.7545 19.8179 22.8885 19.8048 22.9152 19.8007C23.3216 19.7386 23.4883 19.6151 23.6659 19.2443C23.6776 19.2199 23.6882 19.1944 23.7094 19.1433V19.1433C23.7296 19.0945 23.7397 19.0701 23.7496 19.0413C23.8838 18.6519 23.8118 18.3225 23.5272 18.0247C23.5062 18.0027 23.4388 17.9403 23.3041 17.8154C22.7782 17.3281 22.4583 16.7186 22.4583 15.9995ZM15.999 19.4774C14.0774 19.4774 12.5204 17.9204 12.5204 15.9995C12.5204 14.0777 14.0783 12.5197 15.999 12.5197C17.9207 12.5197 19.4767 14.0787 19.4767 15.9995C19.4767 17.9213 17.9207 19.4774 15.999 19.4774Z"/>
</mask>
<path d="M22.4583 15.9995C22.4583 15.2796 22.7777 14.67 23.3023 14.1832C23.4367 14.0584 23.5039 13.996 23.5245 13.9745C23.8105 13.6755 23.8822 13.3477 23.747 12.9566C23.7373 12.9285 23.7272 12.9041 23.707 12.8552V12.8552C23.6863 12.8051 23.6759 12.7801 23.6645 12.7562C23.4869 12.3836 23.319 12.2592 22.9108 12.1978C22.8846 12.1938 22.7514 12.1809 22.485 12.1552C21.8266 12.0914 21.2585 11.7414 20.7575 11.2398C20.2564 10.7393 20.0021 10.171 19.9941 9.51184C19.9914 9.29641 19.9901 9.1887 19.988 9.15943C19.9589 8.74915 19.7966 8.50944 19.4264 8.33018C19.4 8.3174 19.3769 8.30785 19.3307 8.28875V8.28875C19.2753 8.26581 19.2475 8.25434 19.2198 8.24472C18.8316 8.11024 18.5448 8.16593 18.2352 8.43588C18.2131 8.45519 18.1374 8.52941 17.9861 8.67787C17.4416 9.21202 16.7254 9.538 15.999 9.538C15.2716 9.538 14.5554 9.21167 14.0106 8.67701C13.8599 8.52912 13.7846 8.45517 13.7624 8.43582C13.4532 8.16615 13.1651 8.11024 12.7775 8.24467C12.7497 8.25432 12.7221 8.26573 12.6671 8.28854V8.28854C12.6209 8.30766 12.5978 8.31722 12.5714 8.33003C12.2013 8.50943 12.0392 8.74899 12.0101 9.1592C12.0081 9.18851 12.0068 9.29632 12.0042 9.51194C11.9963 10.1711 11.7421 10.7393 11.2396 11.2398C10.7396 11.7412 10.1719 12.0911 9.51348 12.1551C9.24541 12.1811 9.11137 12.1941 9.08469 12.1982C8.6776 12.26 8.51022 12.3841 8.33265 12.7556C8.32101 12.7799 8.31045 12.8055 8.28933 12.8566V12.8566C8.26941 12.9048 8.25945 12.9289 8.24959 12.9575C8.11565 13.3468 8.18743 13.6752 8.47158 13.9731C8.49248 13.995 8.55976 14.0575 8.69433 14.1825C9.21865 14.6694 9.53791 15.2793 9.53791 15.9995C9.53791 16.7258 9.21202 17.442 8.67802 17.9869C8.52982 18.1381 8.45572 18.2137 8.43676 18.2354C8.16555 18.5461 8.11015 18.8313 8.24537 19.2209C8.25482 19.2482 8.26644 19.2763 8.28969 19.3326V19.3326C8.30844 19.378 8.31781 19.4006 8.33034 19.4266C8.50952 19.7982 8.75043 19.9613 9.16192 19.9898C9.19069 19.9918 9.2975 19.9931 9.51113 19.9955C10.1705 20.0031 10.739 20.2569 11.2396 20.7583C11.7408 21.2602 11.9955 21.8289 12.0038 22.4875C12.0065 22.7021 12.0079 22.8094 12.0099 22.8381C12.0387 23.2495 12.2005 23.4886 12.5718 23.6683C12.5976 23.6808 12.6203 23.6902 12.6656 23.709V23.709C12.7212 23.7321 12.7491 23.7436 12.7763 23.7531C13.1663 23.8892 13.4533 23.8336 13.7642 23.5616C13.7859 23.5426 13.8614 23.4685 14.0125 23.3201C14.557 22.7854 15.2732 22.4601 16 22.4601C16.7261 22.4601 17.4422 22.7859 17.987 23.3205C18.1377 23.4685 18.2131 23.5424 18.2345 23.5612C18.546 23.8338 18.8322 23.8893 19.2229 23.7528C19.2498 23.7434 19.2778 23.7318 19.3337 23.7086V23.7086C19.379 23.6898 19.4017 23.6805 19.4273 23.6681C19.7994 23.4884 19.9617 23.2484 19.9901 22.8362C19.992 22.8078 19.9933 22.7011 19.9958 22.4876C20.0036 21.8289 20.2575 21.2602 20.7594 20.7583C21.2602 20.2581 21.8282 19.9086 22.4865 19.8442C22.7545 19.8179 22.8885 19.8048 22.9152 19.8007C23.3216 19.7386 23.4883 19.6151 23.6659 19.2443C23.6776 19.2199 23.6882 19.1944 23.7094 19.1433V19.1433C23.7296 19.0945 23.7397 19.0701 23.7496 19.0413C23.8838 18.6519 23.8118 18.3225 23.5272 18.0247C23.5062 18.0027 23.4388 17.9403 23.3041 17.8154C22.7782 17.3281 22.4583 16.7186 22.4583 15.9995ZM15.999 19.4774C14.0774 19.4774 12.5204 17.9204 12.5204 15.9995C12.5204 14.0777 14.0783 12.5197 15.999 12.5197C17.9207 12.5197 19.4767 14.0787 19.4767 15.9995C19.4767 17.9213 17.9207 19.4774 15.999 19.4774Z" fill="#06FC99" stroke="#06FC99" stroke-width="2" mask="url(#path-2-inside-1_1411_7291)"/>
<rect x="0.5" y="0.5" width="31" height="31" rx="15.5" stroke="#06FC99"/>
</svg>
