<svg width="42" height="42" viewBox="0 0 42 42" fill="none" xmlns="http://www.w3.org/2000/svg">
<rect x="0.5" y="0.5" width="41" height="41" rx="3.5" stroke="#06FC99"/>
<path d="M28.2593 17.485C28.2667 17.6367 28.2695 17.7903 28.2695 17.9419C28.2695 22.6142 24.7614 28 18.3467 28C16.376 28 14.5439 27.4148 13 26.411C13.2735 26.4438 13.5507 26.4607 13.8315 26.4607C15.4668 26.4607 16.9701 25.8951 18.1628 24.9485C16.6374 24.9195 15.3486 23.8989 14.9051 22.4944C15.1176 22.5346 15.3366 22.5562 15.5611 22.5562C15.8798 22.5562 16.1884 22.514 16.4804 22.4335C14.8848 22.1077 13.6828 20.6798 13.6828 18.9663C13.6828 18.9513 13.6828 18.9373 13.6828 18.9223C14.153 19.1873 14.6917 19.3464 15.2627 19.3652C14.3267 18.7303 13.7105 17.6498 13.7105 16.4223C13.7105 15.7753 13.8823 15.1676 14.1835 14.6451C15.9029 16.7846 18.4742 18.191 21.3725 18.339C21.3134 18.0796 21.2829 17.8109 21.2829 17.5328C21.2829 15.5815 22.8434 14 24.7697 14C25.7731 14 26.6795 14.4279 27.316 15.1152C28.1097 14.956 28.8562 14.662 29.5307 14.2575C29.2701 15.0824 28.7167 15.7753 27.997 16.2125C28.7028 16.1264 29.3736 15.9382 30 15.6564C29.5325 16.3661 28.9412 16.9878 28.2593 17.485Z" fill="#06FC99"/>
</svg>
