<svg width="97" height="96" viewBox="0 0 97 96" fill="none" xmlns="http://www.w3.org/2000/svg">
<path d="M82.7858 51.4279V37.7136C82.7858 35.895 82.0634 34.1508 80.7774 32.8649C79.4915 31.5789 77.7473 30.8564 75.9287 30.8564H10.7859C8.96723 30.8564 7.22309 31.5789 5.93712 32.8649C4.65116 34.1508 3.92871 35.895 3.92871 37.7136V85.7136C3.92871 87.5322 4.65116 89.2764 5.93712 90.5623C7.22309 91.8483 8.96723 92.5707 10.7859 92.5707H75.9287C77.7473 92.5707 79.4915 91.8483 80.7774 90.5623C82.0634 89.2764 82.7858 87.5322 82.7858 85.7136V68.5707" stroke="#06FC99" stroke-width="2" stroke-linecap="round" stroke-linejoin="round"/>
<path d="M26.8317 13.7139L65.7117 3.56537C66.1486 3.44227 66.6059 3.40898 67.056 3.46748C67.5061 3.52599 67.9397 3.6751 68.3306 3.9058C68.7215 4.1365 69.0616 4.44401 69.3304 4.80977C69.5992 5.17554 69.7911 5.59197 69.8945 6.03394L71.8145 13.7139" stroke="#06FC99" stroke-width="2" stroke-linecap="round" stroke-linejoin="round"/>
<path d="M89.6431 51.4287H72.5002C70.6067 51.4287 69.0717 52.9637 69.0717 54.8573V65.143C69.0717 67.0365 70.6067 68.5716 72.5002 68.5716H89.6431C91.5366 68.5716 93.0717 67.0365 93.0717 65.143V54.8573C93.0717 52.9637 91.5366 51.4287 89.6431 51.4287Z" stroke="#06FC99" stroke-width="2" stroke-linecap="round" stroke-linejoin="round"/>
</svg>
