<svg width="100" height="100" viewBox="0 0 100 100" fill="none" xmlns="http://www.w3.org/2000/svg">
<g clip-path="url(#clip0_1849_20706)">
<rect x="100" y="27" width="55" height="5" transform="rotate(90 100 27)" fill="#06FC99"/>
<rect x="15" y="27" width="55" height="5" transform="rotate(90 15 27)" fill="#06FC99"/>
<rect x="90" y="22" width="75" height="4.99999" transform="rotate(-180 90 22)" fill="#06FC99"/>
<rect x="90" y="92" width="75" height="4.99999" transform="rotate(-180 90 92)" fill="#06FC99"/>
<rect x="70" y="62" width="5" height="20" transform="rotate(-180 70 62)" fill="#06FC99"/>
<rect x="95" y="27" width="5" height="5" transform="rotate(-180 95 27)" fill="#06FC99"/>
<rect width="80" height="4.99999" transform="matrix(1 -8.74228e-08 -8.74228e-08 -1 10 12)" fill="#06FC99"/>
<rect x="90" y="57" width="5" height="10" transform="rotate(-180 90 57)" fill="#06FC99"/>
<rect x="85" y="57" width="5" height="10" transform="rotate(-180 85 57)" fill="#06FC99"/>
<rect x="95" y="42" width="25" height="5" transform="rotate(-180 95 42)" fill="#06FC99"/>
<rect x="95" y="67" width="25" height="5" transform="rotate(-180 95 67)" fill="#06FC99"/>
<rect x="95" y="87" width="5" height="5" transform="rotate(-180 95 87)" fill="#06FC99"/>
<rect width="5" height="5" transform="matrix(-1 4.37114e-08 1.74846e-07 1 15 87)" fill="#06FC99"/>
<rect width="5" height="5" transform="matrix(-1 4.37114e-08 1.74846e-07 1 10 12)" fill="#06FC99"/>
<rect width="5" height="5" transform="matrix(-1 4.37114e-08 1.74846e-07 1 15 22)" fill="#06FC99"/>
<rect width="5" height="5" transform="matrix(-1 4.37114e-08 1.74846e-07 1 10 82)" fill="#06FC99"/>
<rect width="5" height="5" transform="matrix(-1 4.37114e-08 1.74846e-07 1 20 82)" fill="#06FC99"/>
<rect width="5.00001" height="65" transform="matrix(-1 4.0349e-08 1.89416e-07 1 5 17)" fill="#06FC99"/>
</g>
<defs>
<clipPath id="clip0_1849_20706">
<rect width="100" height="100" fill="white"/>
</clipPath>
</defs>
</svg>
