<svg width="149" height="148" viewBox="0 0 149 148" fill="none" xmlns="http://www.w3.org/2000/svg">
<g filter="url(#filter0_d_2569_13671)">
<rect x="75.5" y="29" width="13" height="5" transform="rotate(-180 75.5 29)" fill="#FF4141"/>
<rect x="24.5" y="75" width="13" height="5" transform="rotate(-90 24.5 75)" fill="#FF4141"/>
<rect x="52.5" y="39" width="8" height="5" transform="rotate(-180 52.5 39)" fill="#FF4141"/>
<rect x="34.5" y="52" width="8" height="5" transform="rotate(-90 34.5 52)" fill="#FF4141"/>
<rect x="44.5" y="44" width="5" height="5" transform="rotate(-180 44.5 44)" fill="#FF4141"/>
<rect x="62.5" y="34" width="10" height="5" transform="rotate(-180 62.5 34)" fill="#FF4141"/>
<rect x="34.5" y="62" width="5" height="10" transform="rotate(-180 34.5 62)" fill="#FF4141"/>
<rect x="119.5" y="75" width="13" height="5" transform="rotate(-90 119.5 75)" fill="#FF4141"/>
<rect x="73.5" y="24" width="13" height="5" fill="#FF4141"/>
<rect x="109.5" y="52" width="8" height="5" transform="rotate(-90 109.5 52)" fill="#FF4141"/>
<rect x="96.5" y="34" width="8" height="5" fill="#FF4141"/>
<rect x="104.5" y="44" width="5" height="5" transform="rotate(-90 104.5 44)" fill="#FF4141"/>
<rect x="114.5" y="62" width="10" height="5" transform="rotate(-90 114.5 62)" fill="#FF4141"/>
<rect x="86.5" y="34" width="5" height="10" transform="rotate(-90 86.5 34)" fill="#FF4141"/>
<rect x="29.5" y="73" width="13" height="5" transform="rotate(90 29.5 73)" fill="#FF4141"/>
<rect x="75.5" y="124" width="13" height="5" transform="rotate(180 75.5 124)" fill="#FF4141"/>
<rect x="39.5" y="96" width="8" height="5" transform="rotate(90 39.5 96)" fill="#FF4141"/>
<rect x="52.5" y="114" width="8" height="5" transform="rotate(180 52.5 114)" fill="#FF4141"/>
<rect x="44.5" y="104" width="5" height="5" transform="rotate(90 44.5 104)" fill="#FF4141"/>
<rect x="34.5" y="86" width="10" height="5" transform="rotate(90 34.5 86)" fill="#FF4141"/>
<rect x="62.5" y="114" width="5" height="10" transform="rotate(90 62.5 114)" fill="#FF4141"/>
<rect x="73.5" y="119" width="13" height="5" fill="#FF4141"/>
<rect x="124.5" y="73" width="13" height="5" transform="rotate(90 124.5 73)" fill="#FF4141"/>
<rect x="96.5" y="109" width="8" height="5" fill="#FF4141"/>
<rect x="114.5" y="96" width="8" height="5" transform="rotate(90 114.5 96)" fill="#FF4141"/>
<rect x="70.5" y="82" width="36" height="8" transform="rotate(-90 70.5 82)" fill="#FF4141"/>
<rect x="78.5" y="90" width="8" height="8" transform="rotate(90 78.5 90)" fill="#FF4141"/>
<rect x="104.5" y="104" width="5" height="5" fill="#FF4141"/>
<rect x="86.5" y="114" width="10" height="5" fill="#FF4141"/>
<rect x="114.5" y="86" width="5" height="10" fill="#FF4141"/>
</g>
<defs>
<filter id="filter0_d_2569_13671" x="-6" y="-2" width="161" height="152" filterUnits="userSpaceOnUse" color-interpolation-filters="sRGB">
<feFlood flood-opacity="0" result="BackgroundImageFix"/>
<feColorMatrix in="SourceAlpha" type="matrix" values="0 0 0 0 0 0 0 0 0 0 0 0 0 0 0 0 0 0 127 0" result="hardAlpha"/>
<feOffset/>
<feGaussianBlur stdDeviation="12"/>
<feComposite in2="hardAlpha" operator="out"/>
<feColorMatrix type="matrix" values="0 0 0 0 1 0 0 0 0 0.345833 0 0 0 0 0.345833 0 0 0 0.59 0"/>
<feBlend mode="normal" in2="BackgroundImageFix" result="effect1_dropShadow_2569_13671"/>
<feBlend mode="normal" in="SourceGraphic" in2="effect1_dropShadow_2569_13671" result="shape"/>
</filter>
</defs>
</svg>
